solid OpenSCAD_Model
  facet normal 0 0 1
    outer loop
      vertex 5.04212 13.4057 10
      vertex -5 0 10
      vertex 5 0 10
    endloop
  endfacet
  facet normal -0 0 1
    outer loop
      vertex -5.04512 14.3633 10
      vertex 5.04212 13.4057 10
      vertex 5.16846 26.8109 10
    endloop
  endfacet
  facet normal -0 0 1
    outer loop
      vertex -5.18049 28.726 10
      vertex 5.16846 26.8109 10
      vertex 5.37903 40.215 10
    endloop
  endfacet
  facet normal -0 0 1
    outer loop
      vertex -5.4061 43.0875 10
      vertex 5.37903 40.215 10
      vertex 5.67381 53.6176 10
    endloop
  endfacet
  facet normal -0 0 1
    outer loop
      vertex -5.72194 57.4474 10
      vertex 5.67381 53.6176 10
      vertex 6.0528 67.018 10
    endloop
  endfacet
  facet normal -0 0 1
    outer loop
      vertex -6.128 71.805 10
      vertex 6.0528 67.018 10
      vertex 6.51598 80.4158 10
    endloop
  endfacet
  facet normal -0 0 1
    outer loop
      vertex -6.62426 86.1598 10
      vertex 6.51598 80.4158 10
      vertex 7.06333 93.8104 10
    endloop
  endfacet
  facet normal -0 0 1
    outer loop
      vertex -7.21071 100.511 10
      vertex 7.06333 93.8104 10
      vertex 7.69483 107.201 10
    endloop
  endfacet
  facet normal -0 0 1
    outer loop
      vertex -7.88732 114.859 10
      vertex 7.69483 107.201 10
      vertex 8.41045 120.588 10
    endloop
  endfacet
  facet normal -0 0 1
    outer loop
      vertex -8.65406 129.201 10
      vertex 8.41045 120.588 10
      vertex 9.21017 133.97 10
    endloop
  endfacet
  facet normal -0 0 1
    outer loop
      vertex -9.5109 143.539 10
      vertex 9.21017 133.97 10
      vertex 10.094 147.346 10
    endloop
  endfacet
  facet normal -0 0 1
    outer loop
      vertex -10.4578 157.871 10
      vertex 10.094 147.346 10
      vertex 11.0618 160.717 10
    endloop
  endfacet
  facet normal -0 0 1
    outer loop
      vertex -11.4948 172.197 10
      vertex 11.0618 160.717 10
      vertex 12.1136 174.082 10
    endloop
  endfacet
  facet normal -0 0 1
    outer loop
      vertex -12.6217 186.516 10
      vertex 12.1136 174.082 10
      vertex 13.2493 187.439 10
    endloop
  endfacet
  facet normal -0 0 1
    outer loop
      vertex -13.7682 200 10
      vertex 13.2493 187.439 10
      vertex 14.3969 200 10
    endloop
  endfacet
  facet normal 0 0 1
    outer loop
      vertex 5.04212 13.4057 10
      vertex -5.04512 14.3633 10
      vertex -5 0 10
    endloop
  endfacet
  facet normal 0 0 1
    outer loop
      vertex 5.16846 26.8109 10
      vertex -5.18049 28.726 10
      vertex -5.04512 14.3633 10
    endloop
  endfacet
  facet normal 0 0 1
    outer loop
      vertex 5.37903 40.215 10
      vertex -5.4061 43.0875 10
      vertex -5.18049 28.726 10
    endloop
  endfacet
  facet normal 0 0 1
    outer loop
      vertex 5.67381 53.6176 10
      vertex -5.72194 57.4474 10
      vertex -5.4061 43.0875 10
    endloop
  endfacet
  facet normal 0 0 1
    outer loop
      vertex 6.0528 67.018 10
      vertex -6.128 71.805 10
      vertex -5.72194 57.4474 10
    endloop
  endfacet
  facet normal 0 0 1
    outer loop
      vertex 6.51598 80.4158 10
      vertex -6.62426 86.1598 10
      vertex -6.128 71.805 10
    endloop
  endfacet
  facet normal 0 0 1
    outer loop
      vertex 7.06333 93.8104 10
      vertex -7.21071 100.511 10
      vertex -6.62426 86.1598 10
    endloop
  endfacet
  facet normal 0 0 1
    outer loop
      vertex 7.69483 107.201 10
      vertex -7.88732 114.859 10
      vertex -7.21071 100.511 10
    endloop
  endfacet
  facet normal 0 0 1
    outer loop
      vertex 8.41045 120.588 10
      vertex -8.65406 129.201 10
      vertex -7.88732 114.859 10
    endloop
  endfacet
  facet normal 0 0 1
    outer loop
      vertex 9.21017 133.97 10
      vertex -9.5109 143.539 10
      vertex -8.65406 129.201 10
    endloop
  endfacet
  facet normal 0 0 1
    outer loop
      vertex 10.094 147.346 10
      vertex -10.4578 157.871 10
      vertex -9.5109 143.539 10
    endloop
  endfacet
  facet normal 0 0 1
    outer loop
      vertex 11.0618 160.717 10
      vertex -11.4948 172.197 10
      vertex -10.4578 157.871 10
    endloop
  endfacet
  facet normal 0 0 1
    outer loop
      vertex 12.1136 174.082 10
      vertex -12.6217 186.516 10
      vertex -11.4948 172.197 10
    endloop
  endfacet
  facet normal 0 0 1
    outer loop
      vertex 13.2493 187.439 10
      vertex -13.7682 200 10
      vertex -12.6217 186.516 10
    endloop
  endfacet
  facet normal -0 0 1
    outer loop
      vertex -5 0 10
      vertex 5.04212 -13.4057 10
      vertex 5 0 10
    endloop
  endfacet
  facet normal 0 0 1
    outer loop
      vertex -5.04512 -14.3633 10
      vertex 5.04212 -13.4057 10
      vertex -5 0 10
    endloop
  endfacet
  facet normal 0 0 1
    outer loop
      vertex 5.04212 -13.4057 10
      vertex -5.04512 -14.3633 10
      vertex 5.16846 -26.8109 10
    endloop
  endfacet
  facet normal 0 0 1
    outer loop
      vertex -5.18049 -28.726 10
      vertex 5.16846 -26.8109 10
      vertex -5.04512 -14.3633 10
    endloop
  endfacet
  facet normal 0 0 1
    outer loop
      vertex 5.16846 -26.8109 10
      vertex -5.18049 -28.726 10
      vertex 5.37903 -40.215 10
    endloop
  endfacet
  facet normal 0 0 1
    outer loop
      vertex -5.4061 -43.0875 10
      vertex 5.37903 -40.215 10
      vertex -5.18049 -28.726 10
    endloop
  endfacet
  facet normal 0 0 1
    outer loop
      vertex 5.37903 -40.215 10
      vertex -5.4061 -43.0875 10
      vertex 5.67381 -53.6176 10
    endloop
  endfacet
  facet normal 0 0 1
    outer loop
      vertex -5.72194 -57.4474 10
      vertex 5.67381 -53.6176 10
      vertex -5.4061 -43.0875 10
    endloop
  endfacet
  facet normal 0 0 1
    outer loop
      vertex 5.67381 -53.6176 10
      vertex -5.72194 -57.4474 10
      vertex 6.0528 -67.018 10
    endloop
  endfacet
  facet normal 0 0 1
    outer loop
      vertex -6.128 -71.805 10
      vertex 6.0528 -67.018 10
      vertex -5.72194 -57.4474 10
    endloop
  endfacet
  facet normal 0 0 1
    outer loop
      vertex 6.0528 -67.018 10
      vertex -6.128 -71.805 10
      vertex 6.51598 -80.4158 10
    endloop
  endfacet
  facet normal 0 0 1
    outer loop
      vertex -6.62426 -86.1598 10
      vertex 6.51598 -80.4158 10
      vertex -6.128 -71.805 10
    endloop
  endfacet
  facet normal 0 0 1
    outer loop
      vertex 6.51598 -80.4158 10
      vertex -6.62426 -86.1598 10
      vertex 7.06333 -93.8104 10
    endloop
  endfacet
  facet normal 0 0 1
    outer loop
      vertex -7.21071 -100.511 10
      vertex 7.06333 -93.8104 10
      vertex -6.62426 -86.1598 10
    endloop
  endfacet
  facet normal 0 0 1
    outer loop
      vertex 7.06333 -93.8104 10
      vertex -7.21071 -100.511 10
      vertex 7.69483 -107.201 10
    endloop
  endfacet
  facet normal 0 0 1
    outer loop
      vertex -7.88732 -114.859 10
      vertex 7.69483 -107.201 10
      vertex -7.21071 -100.511 10
    endloop
  endfacet
  facet normal 0 0 1
    outer loop
      vertex 7.69483 -107.201 10
      vertex -7.88732 -114.859 10
      vertex 8.41045 -120.588 10
    endloop
  endfacet
  facet normal 0 0 1
    outer loop
      vertex -8.65406 -129.201 10
      vertex 8.41045 -120.588 10
      vertex -7.88732 -114.859 10
    endloop
  endfacet
  facet normal 0 0 1
    outer loop
      vertex 8.41045 -120.588 10
      vertex -8.65406 -129.201 10
      vertex 9.21017 -133.97 10
    endloop
  endfacet
  facet normal 0 0 1
    outer loop
      vertex -9.5109 -143.539 10
      vertex 9.21017 -133.97 10
      vertex -8.65406 -129.201 10
    endloop
  endfacet
  facet normal 0 0 1
    outer loop
      vertex 9.21017 -133.97 10
      vertex -9.5109 -143.539 10
      vertex 10.094 -147.346 10
    endloop
  endfacet
  facet normal 0 0 1
    outer loop
      vertex -10.4578 -157.871 10
      vertex 10.094 -147.346 10
      vertex -9.5109 -143.539 10
    endloop
  endfacet
  facet normal 0 0 1
    outer loop
      vertex 10.094 -147.346 10
      vertex -10.4578 -157.871 10
      vertex 11.0618 -160.717 10
    endloop
  endfacet
  facet normal 0 0 1
    outer loop
      vertex -11.4948 -172.197 10
      vertex 11.0618 -160.717 10
      vertex -10.4578 -157.871 10
    endloop
  endfacet
  facet normal 0 0 1
    outer loop
      vertex 11.0618 -160.717 10
      vertex -11.4948 -172.197 10
      vertex 12.1136 -174.082 10
    endloop
  endfacet
  facet normal 0 0 1
    outer loop
      vertex -12.6217 -186.516 10
      vertex 12.1136 -174.082 10
      vertex -11.4948 -172.197 10
    endloop
  endfacet
  facet normal 0 0 1
    outer loop
      vertex 12.1136 -174.082 10
      vertex -12.6217 -186.516 10
      vertex 13.2493 -187.439 10
    endloop
  endfacet
  facet normal 0 0 1
    outer loop
      vertex -13.7682 -200 10
      vertex 13.2493 -187.439 10
      vertex -12.6217 -186.516 10
    endloop
  endfacet
  facet normal 0 0 1
    outer loop
      vertex 13.2493 -187.439 10
      vertex -13.7682 -200 10
      vertex 14.3969 -200 10
    endloop
  endfacet
  facet normal 0 0 -1
    outer loop
      vertex 5.04212 -13.4057 -10
      vertex -5 0 -10
      vertex 5 0 -10
    endloop
  endfacet
  facet normal 0 0 -1
    outer loop
      vertex -5.04512 -14.3633 -10
      vertex 5.04212 -13.4057 -10
      vertex 5.16846 -26.8109 -10
    endloop
  endfacet
  facet normal 0 0 -1
    outer loop
      vertex -5.18049 -28.726 -10
      vertex 5.16846 -26.8109 -10
      vertex 5.37903 -40.215 -10
    endloop
  endfacet
  facet normal 0 0 -1
    outer loop
      vertex -5.4061 -43.0875 -10
      vertex 5.37903 -40.215 -10
      vertex 5.67381 -53.6176 -10
    endloop
  endfacet
  facet normal 0 0 -1
    outer loop
      vertex -5.72194 -57.4474 -10
      vertex 5.67381 -53.6176 -10
      vertex 6.0528 -67.018 -10
    endloop
  endfacet
  facet normal 0 0 -1
    outer loop
      vertex -6.128 -71.805 -10
      vertex 6.0528 -67.018 -10
      vertex 6.51598 -80.4158 -10
    endloop
  endfacet
  facet normal 0 0 -1
    outer loop
      vertex -6.62426 -86.1598 -10
      vertex 6.51598 -80.4158 -10
      vertex 7.06333 -93.8104 -10
    endloop
  endfacet
  facet normal 0 0 -1
    outer loop
      vertex -7.21071 -100.511 -10
      vertex 7.06333 -93.8104 -10
      vertex 7.69483 -107.201 -10
    endloop
  endfacet
  facet normal 0 0 -1
    outer loop
      vertex -7.88732 -114.859 -10
      vertex 7.69483 -107.201 -10
      vertex 8.41045 -120.588 -10
    endloop
  endfacet
  facet normal 0 0 -1
    outer loop
      vertex -8.65406 -129.201 -10
      vertex 8.41045 -120.588 -10
      vertex 9.21017 -133.97 -10
    endloop
  endfacet
  facet normal 0 0 -1
    outer loop
      vertex -9.5109 -143.539 -10
      vertex 9.21017 -133.97 -10
      vertex 10.094 -147.346 -10
    endloop
  endfacet
  facet normal 0 0 -1
    outer loop
      vertex -10.4578 -157.871 -10
      vertex 10.094 -147.346 -10
      vertex 11.0618 -160.717 -10
    endloop
  endfacet
  facet normal 0 0 -1
    outer loop
      vertex -11.4948 -172.197 -10
      vertex 11.0618 -160.717 -10
      vertex 12.1136 -174.082 -10
    endloop
  endfacet
  facet normal 0 0 -1
    outer loop
      vertex -12.6217 -186.516 -10
      vertex 12.1136 -174.082 -10
      vertex 13.2493 -187.439 -10
    endloop
  endfacet
  facet normal 0 0 -1
    outer loop
      vertex -13.7682 -200 -10
      vertex 13.2493 -187.439 -10
      vertex 14.3969 -200 -10
    endloop
  endfacet
  facet normal -0 0 -1
    outer loop
      vertex 5.04212 -13.4057 -10
      vertex -5.04512 -14.3633 -10
      vertex -5 0 -10
    endloop
  endfacet
  facet normal -0 0 -1
    outer loop
      vertex 5.16846 -26.8109 -10
      vertex -5.18049 -28.726 -10
      vertex -5.04512 -14.3633 -10
    endloop
  endfacet
  facet normal -0 0 -1
    outer loop
      vertex 5.37903 -40.215 -10
      vertex -5.4061 -43.0875 -10
      vertex -5.18049 -28.726 -10
    endloop
  endfacet
  facet normal -0 0 -1
    outer loop
      vertex 5.67381 -53.6176 -10
      vertex -5.72194 -57.4474 -10
      vertex -5.4061 -43.0875 -10
    endloop
  endfacet
  facet normal -0 0 -1
    outer loop
      vertex 6.0528 -67.018 -10
      vertex -6.128 -71.805 -10
      vertex -5.72194 -57.4474 -10
    endloop
  endfacet
  facet normal -0 0 -1
    outer loop
      vertex 6.51598 -80.4158 -10
      vertex -6.62426 -86.1598 -10
      vertex -6.128 -71.805 -10
    endloop
  endfacet
  facet normal -0 0 -1
    outer loop
      vertex 7.06333 -93.8104 -10
      vertex -7.21071 -100.511 -10
      vertex -6.62426 -86.1598 -10
    endloop
  endfacet
  facet normal -0 0 -1
    outer loop
      vertex 7.69483 -107.201 -10
      vertex -7.88732 -114.859 -10
      vertex -7.21071 -100.511 -10
    endloop
  endfacet
  facet normal -0 0 -1
    outer loop
      vertex 8.41045 -120.588 -10
      vertex -8.65406 -129.201 -10
      vertex -7.88732 -114.859 -10
    endloop
  endfacet
  facet normal -0 0 -1
    outer loop
      vertex 9.21017 -133.97 -10
      vertex -9.5109 -143.539 -10
      vertex -8.65406 -129.201 -10
    endloop
  endfacet
  facet normal -0 0 -1
    outer loop
      vertex 10.094 -147.346 -10
      vertex -10.4578 -157.871 -10
      vertex -9.5109 -143.539 -10
    endloop
  endfacet
  facet normal -0 0 -1
    outer loop
      vertex 11.0618 -160.717 -10
      vertex -11.4948 -172.197 -10
      vertex -10.4578 -157.871 -10
    endloop
  endfacet
  facet normal -0 0 -1
    outer loop
      vertex 12.1136 -174.082 -10
      vertex -12.6217 -186.516 -10
      vertex -11.4948 -172.197 -10
    endloop
  endfacet
  facet normal -0 0 -1
    outer loop
      vertex 13.2493 -187.439 -10
      vertex -13.7682 -200 -10
      vertex -12.6217 -186.516 -10
    endloop
  endfacet
  facet normal 0 0 -1
    outer loop
      vertex -5 0 -10
      vertex 5.04212 13.4057 -10
      vertex 5 0 -10
    endloop
  endfacet
  facet normal 0 0 -1
    outer loop
      vertex -5.04512 14.3633 -10
      vertex 5.04212 13.4057 -10
      vertex -5 0 -10
    endloop
  endfacet
  facet normal 0 0 -1
    outer loop
      vertex 5.04212 13.4057 -10
      vertex -5.04512 14.3633 -10
      vertex 5.16846 26.8109 -10
    endloop
  endfacet
  facet normal 0 0 -1
    outer loop
      vertex -5.18049 28.726 -10
      vertex 5.16846 26.8109 -10
      vertex -5.04512 14.3633 -10
    endloop
  endfacet
  facet normal 0 0 -1
    outer loop
      vertex 5.16846 26.8109 -10
      vertex -5.18049 28.726 -10
      vertex 5.37903 40.215 -10
    endloop
  endfacet
  facet normal 0 0 -1
    outer loop
      vertex -5.4061 43.0875 -10
      vertex 5.37903 40.215 -10
      vertex -5.18049 28.726 -10
    endloop
  endfacet
  facet normal 0 0 -1
    outer loop
      vertex 5.37903 40.215 -10
      vertex -5.4061 43.0875 -10
      vertex 5.67381 53.6176 -10
    endloop
  endfacet
  facet normal 0 0 -1
    outer loop
      vertex -5.72194 57.4474 -10
      vertex 5.67381 53.6176 -10
      vertex -5.4061 43.0875 -10
    endloop
  endfacet
  facet normal 0 0 -1
    outer loop
      vertex 5.67381 53.6176 -10
      vertex -5.72194 57.4474 -10
      vertex 6.0528 67.018 -10
    endloop
  endfacet
  facet normal 0 0 -1
    outer loop
      vertex -6.128 71.805 -10
      vertex 6.0528 67.018 -10
      vertex -5.72194 57.4474 -10
    endloop
  endfacet
  facet normal 0 0 -1
    outer loop
      vertex 6.0528 67.018 -10
      vertex -6.128 71.805 -10
      vertex 6.51598 80.4158 -10
    endloop
  endfacet
  facet normal 0 0 -1
    outer loop
      vertex -6.62426 86.1598 -10
      vertex 6.51598 80.4158 -10
      vertex -6.128 71.805 -10
    endloop
  endfacet
  facet normal 0 0 -1
    outer loop
      vertex 6.51598 80.4158 -10
      vertex -6.62426 86.1598 -10
      vertex 7.06333 93.8104 -10
    endloop
  endfacet
  facet normal 0 0 -1
    outer loop
      vertex -7.21071 100.511 -10
      vertex 7.06333 93.8104 -10
      vertex -6.62426 86.1598 -10
    endloop
  endfacet
  facet normal 0 0 -1
    outer loop
      vertex 7.06333 93.8104 -10
      vertex -7.21071 100.511 -10
      vertex 7.69483 107.201 -10
    endloop
  endfacet
  facet normal 0 0 -1
    outer loop
      vertex -7.88732 114.859 -10
      vertex 7.69483 107.201 -10
      vertex -7.21071 100.511 -10
    endloop
  endfacet
  facet normal 0 0 -1
    outer loop
      vertex 7.69483 107.201 -10
      vertex -7.88732 114.859 -10
      vertex 8.41045 120.588 -10
    endloop
  endfacet
  facet normal 0 0 -1
    outer loop
      vertex -8.65406 129.201 -10
      vertex 8.41045 120.588 -10
      vertex -7.88732 114.859 -10
    endloop
  endfacet
  facet normal 0 0 -1
    outer loop
      vertex 8.41045 120.588 -10
      vertex -8.65406 129.201 -10
      vertex 9.21017 133.97 -10
    endloop
  endfacet
  facet normal 0 0 -1
    outer loop
      vertex -9.5109 143.539 -10
      vertex 9.21017 133.97 -10
      vertex -8.65406 129.201 -10
    endloop
  endfacet
  facet normal 0 0 -1
    outer loop
      vertex 9.21017 133.97 -10
      vertex -9.5109 143.539 -10
      vertex 10.094 147.346 -10
    endloop
  endfacet
  facet normal 0 0 -1
    outer loop
      vertex -10.4578 157.871 -10
      vertex 10.094 147.346 -10
      vertex -9.5109 143.539 -10
    endloop
  endfacet
  facet normal 0 0 -1
    outer loop
      vertex 10.094 147.346 -10
      vertex -10.4578 157.871 -10
      vertex 11.0618 160.717 -10
    endloop
  endfacet
  facet normal 0 0 -1
    outer loop
      vertex -11.4948 172.197 -10
      vertex 11.0618 160.717 -10
      vertex -10.4578 157.871 -10
    endloop
  endfacet
  facet normal 0 0 -1
    outer loop
      vertex 11.0618 160.717 -10
      vertex -11.4948 172.197 -10
      vertex 12.1136 174.082 -10
    endloop
  endfacet
  facet normal 0 0 -1
    outer loop
      vertex -12.6217 186.516 -10
      vertex 12.1136 174.082 -10
      vertex -11.4948 172.197 -10
    endloop
  endfacet
  facet normal 0 0 -1
    outer loop
      vertex 12.1136 174.082 -10
      vertex -12.6217 186.516 -10
      vertex 13.2493 187.439 -10
    endloop
  endfacet
  facet normal 0 0 -1
    outer loop
      vertex -13.7682 200 -10
      vertex 13.2493 187.439 -10
      vertex -12.6217 186.516 -10
    endloop
  endfacet
  facet normal 0 0 -1
    outer loop
      vertex 13.2493 187.439 -10
      vertex -13.7682 200 -10
      vertex 14.3969 200 -10
    endloop
  endfacet
  facet normal 0 -1 0
    outer loop
      vertex -13.7682 -200 -10
      vertex 14.3969 -200 10
      vertex -13.7682 -200 10
    endloop
  endfacet
  facet normal 0 -1 -0
    outer loop
      vertex 14.3969 -200 10
      vertex -13.7682 -200 -10
      vertex 14.3969 -200 -10
    endloop
  endfacet
  facet normal 0 1 -0
    outer loop
      vertex 14.3969 200 -10
      vertex -13.7682 200 10
      vertex 14.3969 200 10
    endloop
  endfacet
  facet normal 0 1 0
    outer loop
      vertex -13.7682 200 10
      vertex 14.3969 200 -10
      vertex -13.7682 200 -10
    endloop
  endfacet
  facet normal 0.998219 0.0596549 0
    outer loop
      vertex 9.21017 -133.97 10
      vertex 8.41045 -120.588 -10
      vertex 8.41045 -120.588 10
    endloop
  endfacet
  facet normal 0.998219 0.0596549 0
    outer loop
      vertex 8.41045 -120.588 -10
      vertex 9.21017 -133.97 10
      vertex 9.21017 -133.97 -10
    endloop
  endfacet
  facet normal 0.997391 -0.0721937 0
    outer loop
      vertex 10.094 147.346 10
      vertex 11.0618 160.717 -10
      vertex 11.0618 160.717 10
    endloop
  endfacet
  facet normal 0.997391 -0.0721937 0
    outer loop
      vertex 11.0618 160.717 -10
      vertex 10.094 147.346 10
      vertex 10.094 147.346 -10
    endloop
  endfacet
  facet normal 0.997825 -0.0659256 0
    outer loop
      vertex 9.21017 133.97 10
      vertex 10.094 147.346 -10
      vertex 10.094 147.346 10
    endloop
  endfacet
  facet normal 0.997825 -0.0659256 0
    outer loop
      vertex 10.094 147.346 -10
      vertex 9.21017 133.97 10
      vertex 9.21017 133.97 -10
    endloop
  endfacet
  facet normal 0.999403 -0.0345507 0
    outer loop
      vertex 6.0528 67.018 10
      vertex 6.51598 80.4158 -10
      vertex 6.51598 80.4158 10
    endloop
  endfacet
  facet normal 0.999403 -0.0345507 0
    outer loop
      vertex 6.51598 80.4158 -10
      vertex 6.0528 67.018 10
      vertex 6.0528 67.018 -10
    endloop
  endfacet
  facet normal 0.999956 -0.00942464 0
    outer loop
      vertex 5.04212 13.4057 10
      vertex 5.16846 26.8109 -10
      vertex 5.16846 26.8109 10
    endloop
  endfacet
  facet normal 0.999956 -0.00942464 0
    outer loop
      vertex 5.16846 26.8109 -10
      vertex 5.04212 13.4057 10
      vertex 5.04212 13.4057 -10
    endloop
  endfacet
  facet normal 0.9996 0.0282706 0
    outer loop
      vertex 6.0528 -67.018 10
      vertex 5.67381 -53.6176 -10
      vertex 5.67381 -53.6176 10
    endloop
  endfacet
  facet normal 0.9996 0.0282706 0
    outer loop
      vertex 5.67381 -53.6176 -10
      vertex 6.0528 -67.018 10
      vertex 6.0528 -67.018 -10
    endloop
  endfacet
  facet normal 0.995853 0.0909803 0
    outer loop
      vertex 14.3969 -200 10
      vertex 13.2493 -187.439 -10
      vertex 13.2493 -187.439 10
    endloop
  endfacet
  facet normal 0.995853 0.0909803 0
    outer loop
      vertex 13.2493 -187.439 -10
      vertex 14.3969 -200 10
      vertex 14.3969 -200 -10
    endloop
  endfacet
  facet normal 0.999995 0.00314157 0
    outer loop
      vertex 5.04212 -13.4057 10
      vertex 5 0 -10
      vertex 5 0 10
    endloop
  endfacet
  facet normal 0.999995 0.00314157 0
    outer loop
      vertex 5 0 -10
      vertex 5.04212 -13.4057 10
      vertex 5.04212 -13.4057 -10
    endloop
  endfacet
  facet normal 0.999877 -0.0157073 0
    outer loop
      vertex 5.16846 26.8109 10
      vertex 5.37903 40.215 -10
      vertex 5.37903 40.215 10
    endloop
  endfacet
  facet normal 0.999877 -0.0157073 0
    outer loop
      vertex 5.37903 40.215 -10
      vertex 5.16846 26.8109 10
      vertex 5.16846 26.8109 -10
    endloop
  endfacet
  facet normal 0.996917 -0.0784592 0
    outer loop
      vertex 11.0618 160.717 10
      vertex 12.1136 174.082 -10
      vertex 12.1136 174.082 10
    endloop
  endfacet
  facet normal 0.996917 -0.0784592 0
    outer loop
      vertex 12.1136 174.082 -10
      vertex 11.0618 160.717 10
      vertex 11.0618 160.717 -10
    endloop
  endfacet
  facet normal 0.998219 -0.0596549 0
    outer loop
      vertex 8.41045 120.588 10
      vertex 9.21017 133.97 -10
      vertex 9.21017 133.97 10
    endloop
  endfacet
  facet normal 0.998219 -0.0596549 0
    outer loop
      vertex 9.21017 133.97 -10
      vertex 8.41045 120.588 10
      vertex 8.41045 120.588 -10
    endloop
  endfacet
  facet normal 0.99889 -0.0471065 0
    outer loop
      vertex 7.06333 93.8104 10
      vertex 7.69483 107.201 -10
      vertex 7.69483 107.201 10
    endloop
  endfacet
  facet normal 0.99889 -0.0471065 0
    outer loop
      vertex 7.69483 107.201 -10
      vertex 7.06333 93.8104 10
      vertex 7.06333 93.8104 -10
    endloop
  endfacet
  facet normal 0.998574 -0.0533817 0
    outer loop
      vertex 7.69483 107.201 10
      vertex 8.41045 120.588 -10
      vertex 8.41045 120.588 10
    endloop
  endfacet
  facet normal 0.998574 -0.0533817 0
    outer loop
      vertex 8.41045 120.588 -10
      vertex 7.69483 107.201 10
      vertex 7.69483 107.201 -10
    endloop
  endfacet
  facet normal 0.9996 -0.0282706 0
    outer loop
      vertex 5.67381 53.6176 10
      vertex 6.0528 67.018 -10
      vertex 6.0528 67.018 10
    endloop
  endfacet
  facet normal 0.9996 -0.0282706 0
    outer loop
      vertex 6.0528 67.018 -10
      vertex 5.67381 53.6176 10
      vertex 5.67381 53.6176 -10
    endloop
  endfacet
  facet normal 0.999166 -0.0408293 0
    outer loop
      vertex 6.51598 80.4158 10
      vertex 7.06333 93.8104 -10
      vertex 7.06333 93.8104 10
    endloop
  endfacet
  facet normal 0.999166 -0.0408293 0
    outer loop
      vertex 7.06333 93.8104 -10
      vertex 6.51598 80.4158 10
      vertex 6.51598 80.4158 -10
    endloop
  endfacet
  facet normal 0.999758 -0.0219894 0
    outer loop
      vertex 5.37903 40.215 10
      vertex 5.67381 53.6176 -10
      vertex 5.67381 53.6176 10
    endloop
  endfacet
  facet normal 0.999758 -0.0219894 0
    outer loop
      vertex 5.67381 53.6176 -10
      vertex 5.37903 40.215 10
      vertex 5.37903 40.215 -10
    endloop
  endfacet
  facet normal 0.995853 -0.0909803 0
    outer loop
      vertex 13.2493 187.439 10
      vertex 14.3969 200 -10
      vertex 14.3969 200 10
    endloop
  endfacet
  facet normal 0.995853 -0.0909803 0
    outer loop
      vertex 14.3969 200 -10
      vertex 13.2493 187.439 10
      vertex 13.2493 187.439 -10
    endloop
  endfacet
  facet normal 0.999956 0.00942464 0
    outer loop
      vertex 5.16846 -26.8109 10
      vertex 5.04212 -13.4057 -10
      vertex 5.04212 -13.4057 10
    endloop
  endfacet
  facet normal 0.999956 0.00942464 0
    outer loop
      vertex 5.04212 -13.4057 -10
      vertex 5.16846 -26.8109 10
      vertex 5.16846 -26.8109 -10
    endloop
  endfacet
  facet normal 0.999758 0.0219894 0
    outer loop
      vertex 5.67381 -53.6176 10
      vertex 5.37903 -40.215 -10
      vertex 5.37903 -40.215 10
    endloop
  endfacet
  facet normal 0.999758 0.0219894 0
    outer loop
      vertex 5.37903 -40.215 -10
      vertex 5.67381 -53.6176 10
      vertex 5.67381 -53.6176 -10
    endloop
  endfacet
  facet normal 0.99889 0.0471065 0
    outer loop
      vertex 7.69483 -107.201 10
      vertex 7.06333 -93.8104 -10
      vertex 7.06333 -93.8104 10
    endloop
  endfacet
  facet normal 0.99889 0.0471065 0
    outer loop
      vertex 7.06333 -93.8104 -10
      vertex 7.69483 -107.201 10
      vertex 7.69483 -107.201 -10
    endloop
  endfacet
  facet normal 0.999403 0.0345507 0
    outer loop
      vertex 6.51598 -80.4158 10
      vertex 6.0528 -67.018 -10
      vertex 6.0528 -67.018 10
    endloop
  endfacet
  facet normal 0.999403 0.0345507 0
    outer loop
      vertex 6.0528 -67.018 -10
      vertex 6.51598 -80.4158 10
      vertex 6.51598 -80.4158 -10
    endloop
  endfacet
  facet normal 0.997391 0.0721937 0
    outer loop
      vertex 11.0618 -160.717 10
      vertex 10.094 -147.346 -10
      vertex 10.094 -147.346 10
    endloop
  endfacet
  facet normal 0.997391 0.0721937 0
    outer loop
      vertex 10.094 -147.346 -10
      vertex 11.0618 -160.717 10
      vertex 11.0618 -160.717 -10
    endloop
  endfacet
  facet normal 0.996405 0.0847213 0
    outer loop
      vertex 13.2493 -187.439 10
      vertex 12.1136 -174.082 -10
      vertex 12.1136 -174.082 10
    endloop
  endfacet
  facet normal 0.996405 0.0847213 0
    outer loop
      vertex 12.1136 -174.082 -10
      vertex 13.2493 -187.439 10
      vertex 13.2493 -187.439 -10
    endloop
  endfacet
  facet normal 0.999995 -0.00314157 0
    outer loop
      vertex 5 0 10
      vertex 5.04212 13.4057 -10
      vertex 5.04212 13.4057 10
    endloop
  endfacet
  facet normal 0.999995 -0.00314157 0
    outer loop
      vertex 5.04212 13.4057 -10
      vertex 5 0 10
      vertex 5 0 -10
    endloop
  endfacet
  facet normal 0.996405 -0.0847213 0
    outer loop
      vertex 12.1136 174.082 10
      vertex 13.2493 187.439 -10
      vertex 13.2493 187.439 10
    endloop
  endfacet
  facet normal 0.996405 -0.0847213 0
    outer loop
      vertex 13.2493 187.439 -10
      vertex 12.1136 174.082 10
      vertex 12.1136 174.082 -10
    endloop
  endfacet
  facet normal 0.999877 0.0157073 0
    outer loop
      vertex 5.37903 -40.215 10
      vertex 5.16846 -26.8109 -10
      vertex 5.16846 -26.8109 10
    endloop
  endfacet
  facet normal 0.999877 0.0157073 0
    outer loop
      vertex 5.16846 -26.8109 -10
      vertex 5.37903 -40.215 10
      vertex 5.37903 -40.215 -10
    endloop
  endfacet
  facet normal 0.999166 0.0408293 0
    outer loop
      vertex 7.06333 -93.8104 10
      vertex 6.51598 -80.4158 -10
      vertex 6.51598 -80.4158 10
    endloop
  endfacet
  facet normal 0.999166 0.0408293 0
    outer loop
      vertex 6.51598 -80.4158 -10
      vertex 7.06333 -93.8104 10
      vertex 7.06333 -93.8104 -10
    endloop
  endfacet
  facet normal 0.998574 0.0533817 0
    outer loop
      vertex 8.41045 -120.588 10
      vertex 7.69483 -107.201 -10
      vertex 7.69483 -107.201 10
    endloop
  endfacet
  facet normal 0.998574 0.0533817 0
    outer loop
      vertex 7.69483 -107.201 -10
      vertex 8.41045 -120.588 10
      vertex 8.41045 -120.588 -10
    endloop
  endfacet
  facet normal 0.997825 0.0659256 0
    outer loop
      vertex 10.094 -147.346 10
      vertex 9.21017 -133.97 -10
      vertex 9.21017 -133.97 10
    endloop
  endfacet
  facet normal 0.997825 0.0659256 0
    outer loop
      vertex 9.21017 -133.97 -10
      vertex 10.094 -147.346 10
      vertex 10.094 -147.346 -10
    endloop
  endfacet
  facet normal 0.996917 0.0784592 0
    outer loop
      vertex 12.1136 -174.082 10
      vertex 11.0618 -160.717 -10
      vertex 11.0618 -160.717 10
    endloop
  endfacet
  facet normal 0.996917 0.0784592 0
    outer loop
      vertex 11.0618 -160.717 -10
      vertex 12.1136 -174.082 10
      vertex 12.1136 -174.082 -10
    endloop
  endfacet
  facet normal -0.999995 0.00314155 0
    outer loop
      vertex -5.04512 -14.3633 -10
      vertex -5 0 10
      vertex -5 0 -10
    endloop
  endfacet
  facet normal -0.999995 0.00314155 0
    outer loop
      vertex -5 0 10
      vertex -5.04512 -14.3633 -10
      vertex -5.04512 -14.3633 10
    endloop
  endfacet
  facet normal -0.996917 -0.0784591 0
    outer loop
      vertex -11.4948 172.197 -10
      vertex -12.6217 186.516 10
      vertex -12.6217 186.516 -10
    endloop
  endfacet
  facet normal -0.996917 -0.0784591 0
    outer loop
      vertex -12.6217 186.516 10
      vertex -11.4948 172.197 -10
      vertex -11.4948 172.197 10
    endloop
  endfacet
  facet normal -0.998574 0.0533817 0
    outer loop
      vertex -8.65406 -129.201 -10
      vertex -7.88732 -114.859 10
      vertex -7.88732 -114.859 -10
    endloop
  endfacet
  facet normal -0.998574 0.0533817 0
    outer loop
      vertex -7.88732 -114.859 10
      vertex -8.65406 -129.201 -10
      vertex -8.65406 -129.201 10
    endloop
  endfacet
  facet normal -0.996917 0.0784591 0
    outer loop
      vertex -12.6217 -186.516 -10
      vertex -11.4948 -172.197 10
      vertex -11.4948 -172.197 -10
    endloop
  endfacet
  facet normal -0.996917 0.0784591 0
    outer loop
      vertex -11.4948 -172.197 10
      vertex -12.6217 -186.516 -10
      vertex -12.6217 -186.516 10
    endloop
  endfacet
  facet normal -0.999758 -0.0219894 0
    outer loop
      vertex -5.4061 43.0875 -10
      vertex -5.72194 57.4474 10
      vertex -5.72194 57.4474 -10
    endloop
  endfacet
  facet normal -0.999758 -0.0219894 0
    outer loop
      vertex -5.72194 57.4474 10
      vertex -5.4061 43.0875 -10
      vertex -5.4061 43.0875 10
    endloop
  endfacet
  facet normal -0.999956 -0.00942464 0
    outer loop
      vertex -5.04512 14.3633 -10
      vertex -5.18049 28.726 10
      vertex -5.18049 28.726 -10
    endloop
  endfacet
  facet normal -0.999956 -0.00942464 0
    outer loop
      vertex -5.18049 28.726 10
      vertex -5.04512 14.3633 -10
      vertex -5.04512 14.3633 10
    endloop
  endfacet
  facet normal -0.999995 -0.00314155 0
    outer loop
      vertex -5 0 -10
      vertex -5.04512 14.3633 10
      vertex -5.04512 14.3633 -10
    endloop
  endfacet
  facet normal -0.999995 -0.00314155 0
    outer loop
      vertex -5.04512 14.3633 10
      vertex -5 0 -10
      vertex -5 0 10
    endloop
  endfacet
  facet normal -0.999166 0.0408294 0
    outer loop
      vertex -7.21071 -100.511 -10
      vertex -6.62426 -86.1598 10
      vertex -6.62426 -86.1598 -10
    endloop
  endfacet
  facet normal -0.999166 0.0408294 0
    outer loop
      vertex -6.62426 -86.1598 10
      vertex -7.21071 -100.511 -10
      vertex -7.21071 -100.511 10
    endloop
  endfacet
  facet normal -0.9996 0.0282705 0
    outer loop
      vertex -6.128 -71.805 -10
      vertex -5.72194 -57.4474 10
      vertex -5.72194 -57.4474 -10
    endloop
  endfacet
  facet normal -0.9996 0.0282705 0
    outer loop
      vertex -5.72194 -57.4474 10
      vertex -6.128 -71.805 -10
      vertex -6.128 -71.805 10
    endloop
  endfacet
  facet normal -0.999877 0.0157073 0
    outer loop
      vertex -5.4061 -43.0875 -10
      vertex -5.18049 -28.726 10
      vertex -5.18049 -28.726 -10
    endloop
  endfacet
  facet normal -0.999877 0.0157073 0
    outer loop
      vertex -5.18049 -28.726 10
      vertex -5.4061 -43.0875 -10
      vertex -5.4061 -43.0875 10
    endloop
  endfacet
  facet normal -0.997825 0.0659256 0
    outer loop
      vertex -10.4578 -157.871 -10
      vertex -9.5109 -143.539 10
      vertex -9.5109 -143.539 -10
    endloop
  endfacet
  facet normal -0.997825 0.0659256 0
    outer loop
      vertex -9.5109 -143.539 10
      vertex -10.4578 -157.871 -10
      vertex -10.4578 -157.871 10
    endloop
  endfacet
  facet normal -0.997391 0.0721937 0
    outer loop
      vertex -11.4948 -172.197 -10
      vertex -10.4578 -157.871 10
      vertex -10.4578 -157.871 -10
    endloop
  endfacet
  facet normal -0.997391 0.0721937 0
    outer loop
      vertex -10.4578 -157.871 10
      vertex -11.4948 -172.197 -10
      vertex -11.4948 -172.197 10
    endloop
  endfacet
  facet normal -0.99889 -0.0471065 0
    outer loop
      vertex -7.21071 100.511 -10
      vertex -7.88732 114.859 10
      vertex -7.88732 114.859 -10
    endloop
  endfacet
  facet normal -0.99889 -0.0471065 0
    outer loop
      vertex -7.88732 114.859 10
      vertex -7.21071 100.511 -10
      vertex -7.21071 100.511 10
    endloop
  endfacet
  facet normal -0.9996 -0.0282705 0
    outer loop
      vertex -5.72194 57.4474 -10
      vertex -6.128 71.805 10
      vertex -6.128 71.805 -10
    endloop
  endfacet
  facet normal -0.9996 -0.0282705 0
    outer loop
      vertex -6.128 71.805 10
      vertex -5.72194 57.4474 -10
      vertex -5.72194 57.4474 10
    endloop
  endfacet
  facet normal -0.999166 -0.0408294 0
    outer loop
      vertex -6.62426 86.1598 -10
      vertex -7.21071 100.511 10
      vertex -7.21071 100.511 -10
    endloop
  endfacet
  facet normal -0.999166 -0.0408294 0
    outer loop
      vertex -7.21071 100.511 10
      vertex -6.62426 86.1598 -10
      vertex -6.62426 86.1598 10
    endloop
  endfacet
  facet normal -0.996405 -0.0847213 0
    outer loop
      vertex -12.6217 186.516 -10
      vertex -13.7682 200 10
      vertex -13.7682 200 -10
    endloop
  endfacet
  facet normal -0.996405 -0.0847213 0
    outer loop
      vertex -13.7682 200 10
      vertex -12.6217 186.516 -10
      vertex -12.6217 186.516 10
    endloop
  endfacet
  facet normal -0.999403 0.0345506 0
    outer loop
      vertex -6.62426 -86.1598 -10
      vertex -6.128 -71.805 10
      vertex -6.128 -71.805 -10
    endloop
  endfacet
  facet normal -0.999403 0.0345506 0
    outer loop
      vertex -6.128 -71.805 10
      vertex -6.62426 -86.1598 -10
      vertex -6.62426 -86.1598 10
    endloop
  endfacet
  facet normal -0.999758 0.0219894 0
    outer loop
      vertex -5.72194 -57.4474 -10
      vertex -5.4061 -43.0875 10
      vertex -5.4061 -43.0875 -10
    endloop
  endfacet
  facet normal -0.999758 0.0219894 0
    outer loop
      vertex -5.4061 -43.0875 10
      vertex -5.72194 -57.4474 -10
      vertex -5.72194 -57.4474 10
    endloop
  endfacet
  facet normal -0.999956 0.00942464 0
    outer loop
      vertex -5.18049 -28.726 -10
      vertex -5.04512 -14.3633 10
      vertex -5.04512 -14.3633 -10
    endloop
  endfacet
  facet normal -0.999956 0.00942464 0
    outer loop
      vertex -5.04512 -14.3633 10
      vertex -5.18049 -28.726 -10
      vertex -5.18049 -28.726 10
    endloop
  endfacet
  facet normal -0.99889 0.0471065 0
    outer loop
      vertex -7.88732 -114.859 -10
      vertex -7.21071 -100.511 10
      vertex -7.21071 -100.511 -10
    endloop
  endfacet
  facet normal -0.99889 0.0471065 0
    outer loop
      vertex -7.21071 -100.511 10
      vertex -7.88732 -114.859 -10
      vertex -7.88732 -114.859 10
    endloop
  endfacet
  facet normal -0.998219 0.0596549 0
    outer loop
      vertex -9.5109 -143.539 -10
      vertex -8.65406 -129.201 10
      vertex -8.65406 -129.201 -10
    endloop
  endfacet
  facet normal -0.998219 0.0596549 0
    outer loop
      vertex -8.65406 -129.201 10
      vertex -9.5109 -143.539 -10
      vertex -9.5109 -143.539 10
    endloop
  endfacet
  facet normal -0.996405 0.0847213 0
    outer loop
      vertex -13.7682 -200 -10
      vertex -12.6217 -186.516 10
      vertex -12.6217 -186.516 -10
    endloop
  endfacet
  facet normal -0.996405 0.0847213 0
    outer loop
      vertex -12.6217 -186.516 10
      vertex -13.7682 -200 -10
      vertex -13.7682 -200 10
    endloop
  endfacet
  facet normal -0.999877 -0.0157073 0
    outer loop
      vertex -5.18049 28.726 -10
      vertex -5.4061 43.0875 10
      vertex -5.4061 43.0875 -10
    endloop
  endfacet
  facet normal -0.999877 -0.0157073 0
    outer loop
      vertex -5.4061 43.0875 10
      vertex -5.18049 28.726 -10
      vertex -5.18049 28.726 10
    endloop
  endfacet
  facet normal -0.999403 -0.0345506 0
    outer loop
      vertex -6.128 71.805 -10
      vertex -6.62426 86.1598 10
      vertex -6.62426 86.1598 -10
    endloop
  endfacet
  facet normal -0.999403 -0.0345506 0
    outer loop
      vertex -6.62426 86.1598 10
      vertex -6.128 71.805 -10
      vertex -6.128 71.805 10
    endloop
  endfacet
  facet normal -0.997391 -0.0721937 0
    outer loop
      vertex -10.4578 157.871 -10
      vertex -11.4948 172.197 10
      vertex -11.4948 172.197 -10
    endloop
  endfacet
  facet normal -0.997391 -0.0721937 0
    outer loop
      vertex -11.4948 172.197 10
      vertex -10.4578 157.871 -10
      vertex -10.4578 157.871 10
    endloop
  endfacet
  facet normal -0.997825 -0.0659256 0
    outer loop
      vertex -9.5109 143.539 -10
      vertex -10.4578 157.871 10
      vertex -10.4578 157.871 -10
    endloop
  endfacet
  facet normal -0.997825 -0.0659256 0
    outer loop
      vertex -10.4578 157.871 10
      vertex -9.5109 143.539 -10
      vertex -9.5109 143.539 10
    endloop
  endfacet
  facet normal -0.998219 -0.0596549 0
    outer loop
      vertex -8.65406 129.201 -10
      vertex -9.5109 143.539 10
      vertex -9.5109 143.539 -10
    endloop
  endfacet
  facet normal -0.998219 -0.0596549 0
    outer loop
      vertex -9.5109 143.539 10
      vertex -8.65406 129.201 -10
      vertex -8.65406 129.201 10
    endloop
  endfacet
  facet normal -0.998574 -0.0533817 0
    outer loop
      vertex -7.88732 114.859 -10
      vertex -8.65406 129.201 10
      vertex -8.65406 129.201 -10
    endloop
  endfacet
  facet normal -0.998574 -0.0533817 0
    outer loop
      vertex -8.65406 129.201 10
      vertex -7.88732 114.859 -10
      vertex -7.88732 114.859 10
    endloop
  endfacet
endsolid OpenSCAD_Model
