solid OpenSCAD_Model
  facet normal 0 0 1
    outer loop
      vertex 5.04813 15.3208 10
      vertex -5 0 10
      vertex 5 0 10
    endloop
  endfacet
  facet normal -0 0 1
    outer loop
      vertex -5.05415 17.2359 10
      vertex 5.04813 15.3208 10
      vertex 5.19252 30.641 10
    endloop
  endfacet
  facet normal -0 0 1
    outer loop
      vertex -5.21659 34.4712 10
      vertex 5.19252 30.641 10
      vertex 5.43318 45.96 10
    endloop
  endfacet
  facet normal -0 0 1
    outer loop
      vertex -5.48732 51.705 10
      vertex 5.43318 45.96 10
      vertex 5.77007 61.2772 10
    endloop
  endfacet
  facet normal -0 0 1
    outer loop
      vertex -5.86633 68.9369 10
      vertex 5.77007 61.2772 10
      vertex 6.2032 76.592 10
    endloop
  endfacet
  facet normal -0 0 1
    outer loop
      vertex -6.3536 86.166 10
      vertex 6.2032 76.592 10
      vertex 6.73255 91.9037 10
    endloop
  endfacet
  facet normal -0 0 1
    outer loop
      vertex -6.94912 103.392 10
      vertex 6.73255 91.9037 10
      vertex 7.35809 107.212 10
    endloop
  endfacet
  facet normal -0 0 1
    outer loop
      vertex -7.65285 120.613 10
      vertex 7.35809 107.212 10
      vertex 8.0798 122.516 10
    endloop
  endfacet
  facet normal 0 0 1
    outer loop
      vertex -8.46478 137.83 10
      vertex 8.0798 122.516 10
      vertex 8.89766 137.815 10
    endloop
  endfacet
  facet normal -0 0 1
    outer loop
      vertex -8.46478 137.83 10
      vertex 8.89766 137.815 10
      vertex 9.81162 153.108 10
    endloop
  endfacet
  facet normal -0 0 1
    outer loop
      vertex -9.38487 155.042 10
      vertex 9.81162 153.108 10
      vertex 10.8217 168.396 10
    endloop
  endfacet
  facet normal -0 0 1
    outer loop
      vertex -10.4131 172.247 10
      vertex 10.8217 168.396 10
      vertex 11.9277 183.677 10
    endloop
  endfacet
  facet normal -0 0 1
    outer loop
      vertex -11.5494 189.445 10
      vertex 11.9277 183.677 10
      vertex 13.1298 198.951 10
    endloop
  endfacet
  facet normal -0 0 1
    outer loop
      vertex -12.3133 200 10
      vertex 13.1298 198.951 10
      vertex 13.219 200 10
    endloop
  endfacet
  facet normal 0 0 1
    outer loop
      vertex 5.04813 15.3208 10
      vertex -5.05415 17.2359 10
      vertex -5 0 10
    endloop
  endfacet
  facet normal 0 0 1
    outer loop
      vertex 5.19252 30.641 10
      vertex -5.21659 34.4712 10
      vertex -5.05415 17.2359 10
    endloop
  endfacet
  facet normal 0 0 1
    outer loop
      vertex 5.43318 45.96 10
      vertex -5.48732 51.705 10
      vertex -5.21659 34.4712 10
    endloop
  endfacet
  facet normal 0 0 1
    outer loop
      vertex 5.77007 61.2772 10
      vertex -5.86633 68.9369 10
      vertex -5.48732 51.705 10
    endloop
  endfacet
  facet normal 0 0 1
    outer loop
      vertex 6.2032 76.592 10
      vertex -6.3536 86.166 10
      vertex -5.86633 68.9369 10
    endloop
  endfacet
  facet normal 0 0 1
    outer loop
      vertex 6.73255 91.9037 10
      vertex -6.94912 103.392 10
      vertex -6.3536 86.166 10
    endloop
  endfacet
  facet normal 0 0 1
    outer loop
      vertex 7.35809 107.212 10
      vertex -7.65285 120.613 10
      vertex -6.94912 103.392 10
    endloop
  endfacet
  facet normal 0 0 1
    outer loop
      vertex 8.0798 122.516 10
      vertex -8.46478 137.83 10
      vertex -7.65285 120.613 10
    endloop
  endfacet
  facet normal 0 0 1
    outer loop
      vertex 9.81162 153.108 10
      vertex -9.38487 155.042 10
      vertex -8.46478 137.83 10
    endloop
  endfacet
  facet normal 0 0 1
    outer loop
      vertex 10.8217 168.396 10
      vertex -10.4131 172.247 10
      vertex -9.38487 155.042 10
    endloop
  endfacet
  facet normal 0 0 1
    outer loop
      vertex 11.9277 183.677 10
      vertex -11.5494 189.445 10
      vertex -10.4131 172.247 10
    endloop
  endfacet
  facet normal 0 0 1
    outer loop
      vertex 13.1298 198.951 10
      vertex -12.3133 200 10
      vertex -11.5494 189.445 10
    endloop
  endfacet
  facet normal -0 0 1
    outer loop
      vertex -5 0 10
      vertex 5.04813 -15.3208 10
      vertex 5 0 10
    endloop
  endfacet
  facet normal 0 0 1
    outer loop
      vertex -5.05415 -17.2359 10
      vertex 5.04813 -15.3208 10
      vertex -5 0 10
    endloop
  endfacet
  facet normal 0 0 1
    outer loop
      vertex 5.04813 -15.3208 10
      vertex -5.05415 -17.2359 10
      vertex 5.19252 -30.641 10
    endloop
  endfacet
  facet normal 0 0 1
    outer loop
      vertex -5.21659 -34.4712 10
      vertex 5.19252 -30.641 10
      vertex -5.05415 -17.2359 10
    endloop
  endfacet
  facet normal 0 0 1
    outer loop
      vertex 5.19252 -30.641 10
      vertex -5.21659 -34.4712 10
      vertex 5.43318 -45.96 10
    endloop
  endfacet
  facet normal 0 0 1
    outer loop
      vertex -5.48732 -51.705 10
      vertex 5.43318 -45.96 10
      vertex -5.21659 -34.4712 10
    endloop
  endfacet
  facet normal 0 0 1
    outer loop
      vertex 5.43318 -45.96 10
      vertex -5.48732 -51.705 10
      vertex 5.77007 -61.2772 10
    endloop
  endfacet
  facet normal 0 0 1
    outer loop
      vertex -5.86633 -68.9369 10
      vertex 5.77007 -61.2772 10
      vertex -5.48732 -51.705 10
    endloop
  endfacet
  facet normal 0 0 1
    outer loop
      vertex 5.77007 -61.2772 10
      vertex -5.86633 -68.9369 10
      vertex 6.2032 -76.592 10
    endloop
  endfacet
  facet normal 0 0 1
    outer loop
      vertex -6.3536 -86.166 10
      vertex 6.2032 -76.592 10
      vertex -5.86633 -68.9369 10
    endloop
  endfacet
  facet normal 0 0 1
    outer loop
      vertex 6.2032 -76.592 10
      vertex -6.3536 -86.166 10
      vertex 6.73255 -91.9037 10
    endloop
  endfacet
  facet normal 0 0 1
    outer loop
      vertex -6.94912 -103.392 10
      vertex 6.73255 -91.9037 10
      vertex -6.3536 -86.166 10
    endloop
  endfacet
  facet normal 0 0 1
    outer loop
      vertex 6.73255 -91.9037 10
      vertex -6.94912 -103.392 10
      vertex 7.35809 -107.212 10
    endloop
  endfacet
  facet normal 0 0 1
    outer loop
      vertex -7.65285 -120.613 10
      vertex 7.35809 -107.212 10
      vertex -6.94912 -103.392 10
    endloop
  endfacet
  facet normal 0 0 1
    outer loop
      vertex 7.35809 -107.212 10
      vertex -7.65285 -120.613 10
      vertex 8.0798 -122.516 10
    endloop
  endfacet
  facet normal 0 0 1
    outer loop
      vertex -8.46478 -137.83 10
      vertex 8.0798 -122.516 10
      vertex -7.65285 -120.613 10
    endloop
  endfacet
  facet normal 0 0 1
    outer loop
      vertex 8.0798 -122.516 10
      vertex -8.46478 -137.83 10
      vertex 8.89766 -137.815 10
    endloop
  endfacet
  facet normal 0 0 1
    outer loop
      vertex 8.89766 -137.815 10
      vertex -8.46478 -137.83 10
      vertex 9.81162 -153.108 10
    endloop
  endfacet
  facet normal 0 0 1
    outer loop
      vertex -9.38487 -155.042 10
      vertex 9.81162 -153.108 10
      vertex -8.46478 -137.83 10
    endloop
  endfacet
  facet normal 0 0 1
    outer loop
      vertex 9.81162 -153.108 10
      vertex -9.38487 -155.042 10
      vertex 10.8217 -168.396 10
    endloop
  endfacet
  facet normal 0 0 1
    outer loop
      vertex -10.4131 -172.247 10
      vertex 10.8217 -168.396 10
      vertex -9.38487 -155.042 10
    endloop
  endfacet
  facet normal 0 0 1
    outer loop
      vertex 10.8217 -168.396 10
      vertex -10.4131 -172.247 10
      vertex 11.9277 -183.677 10
    endloop
  endfacet
  facet normal 0 0 1
    outer loop
      vertex -11.5494 -189.445 10
      vertex 11.9277 -183.677 10
      vertex -10.4131 -172.247 10
    endloop
  endfacet
  facet normal 0 0 1
    outer loop
      vertex 11.9277 -183.677 10
      vertex -11.5494 -189.445 10
      vertex 13.1298 -198.951 10
    endloop
  endfacet
  facet normal 0 0 1
    outer loop
      vertex -12.3133 -200 10
      vertex 13.1298 -198.951 10
      vertex -11.5494 -189.445 10
    endloop
  endfacet
  facet normal 0 0 1
    outer loop
      vertex 13.1298 -198.951 10
      vertex -12.3133 -200 10
      vertex 13.219 -200 10
    endloop
  endfacet
  facet normal 0 0 -1
    outer loop
      vertex 5.04813 -15.3208 -10
      vertex -5 0 -10
      vertex 5 0 -10
    endloop
  endfacet
  facet normal 0 0 -1
    outer loop
      vertex -5.05415 -17.2359 -10
      vertex 5.04813 -15.3208 -10
      vertex 5.19252 -30.641 -10
    endloop
  endfacet
  facet normal 0 0 -1
    outer loop
      vertex -5.21659 -34.4712 -10
      vertex 5.19252 -30.641 -10
      vertex 5.43318 -45.96 -10
    endloop
  endfacet
  facet normal 0 0 -1
    outer loop
      vertex -5.48732 -51.705 -10
      vertex 5.43318 -45.96 -10
      vertex 5.77007 -61.2772 -10
    endloop
  endfacet
  facet normal 0 0 -1
    outer loop
      vertex -5.86633 -68.9369 -10
      vertex 5.77007 -61.2772 -10
      vertex 6.2032 -76.592 -10
    endloop
  endfacet
  facet normal 0 0 -1
    outer loop
      vertex -6.3536 -86.166 -10
      vertex 6.2032 -76.592 -10
      vertex 6.73255 -91.9037 -10
    endloop
  endfacet
  facet normal 0 0 -1
    outer loop
      vertex -6.94912 -103.392 -10
      vertex 6.73255 -91.9037 -10
      vertex 7.35809 -107.212 -10
    endloop
  endfacet
  facet normal 0 0 -1
    outer loop
      vertex -7.65285 -120.613 -10
      vertex 7.35809 -107.212 -10
      vertex 8.0798 -122.516 -10
    endloop
  endfacet
  facet normal 0 0 -1
    outer loop
      vertex -8.46478 -137.83 -10
      vertex 8.0798 -122.516 -10
      vertex 8.89766 -137.815 -10
    endloop
  endfacet
  facet normal 0 0 -1
    outer loop
      vertex -8.46478 -137.83 -10
      vertex 8.89766 -137.815 -10
      vertex 9.81162 -153.108 -10
    endloop
  endfacet
  facet normal 0 0 -1
    outer loop
      vertex -9.38487 -155.042 -10
      vertex 9.81162 -153.108 -10
      vertex 10.8217 -168.396 -10
    endloop
  endfacet
  facet normal 0 0 -1
    outer loop
      vertex -10.4131 -172.247 -10
      vertex 10.8217 -168.396 -10
      vertex 11.9277 -183.677 -10
    endloop
  endfacet
  facet normal 0 0 -1
    outer loop
      vertex -11.5494 -189.445 -10
      vertex 11.9277 -183.677 -10
      vertex 13.1298 -198.951 -10
    endloop
  endfacet
  facet normal 0 0 -1
    outer loop
      vertex -12.3133 -200 -10
      vertex 13.1298 -198.951 -10
      vertex 13.219 -200 -10
    endloop
  endfacet
  facet normal -0 0 -1
    outer loop
      vertex 5.04813 -15.3208 -10
      vertex -5.05415 -17.2359 -10
      vertex -5 0 -10
    endloop
  endfacet
  facet normal -0 0 -1
    outer loop
      vertex 5.19252 -30.641 -10
      vertex -5.21659 -34.4712 -10
      vertex -5.05415 -17.2359 -10
    endloop
  endfacet
  facet normal -0 0 -1
    outer loop
      vertex 5.43318 -45.96 -10
      vertex -5.48732 -51.705 -10
      vertex -5.21659 -34.4712 -10
    endloop
  endfacet
  facet normal -0 0 -1
    outer loop
      vertex 5.77007 -61.2772 -10
      vertex -5.86633 -68.9369 -10
      vertex -5.48732 -51.705 -10
    endloop
  endfacet
  facet normal -0 0 -1
    outer loop
      vertex 6.2032 -76.592 -10
      vertex -6.3536 -86.166 -10
      vertex -5.86633 -68.9369 -10
    endloop
  endfacet
  facet normal -0 0 -1
    outer loop
      vertex 6.73255 -91.9037 -10
      vertex -6.94912 -103.392 -10
      vertex -6.3536 -86.166 -10
    endloop
  endfacet
  facet normal -0 0 -1
    outer loop
      vertex 7.35809 -107.212 -10
      vertex -7.65285 -120.613 -10
      vertex -6.94912 -103.392 -10
    endloop
  endfacet
  facet normal -0 0 -1
    outer loop
      vertex 8.0798 -122.516 -10
      vertex -8.46478 -137.83 -10
      vertex -7.65285 -120.613 -10
    endloop
  endfacet
  facet normal -0 0 -1
    outer loop
      vertex 9.81162 -153.108 -10
      vertex -9.38487 -155.042 -10
      vertex -8.46478 -137.83 -10
    endloop
  endfacet
  facet normal -0 0 -1
    outer loop
      vertex 10.8217 -168.396 -10
      vertex -10.4131 -172.247 -10
      vertex -9.38487 -155.042 -10
    endloop
  endfacet
  facet normal -0 0 -1
    outer loop
      vertex 11.9277 -183.677 -10
      vertex -11.5494 -189.445 -10
      vertex -10.4131 -172.247 -10
    endloop
  endfacet
  facet normal -0 0 -1
    outer loop
      vertex 13.1298 -198.951 -10
      vertex -12.3133 -200 -10
      vertex -11.5494 -189.445 -10
    endloop
  endfacet
  facet normal 0 0 -1
    outer loop
      vertex -5 0 -10
      vertex 5.04813 15.3208 -10
      vertex 5 0 -10
    endloop
  endfacet
  facet normal 0 0 -1
    outer loop
      vertex -5.05415 17.2359 -10
      vertex 5.04813 15.3208 -10
      vertex -5 0 -10
    endloop
  endfacet
  facet normal 0 0 -1
    outer loop
      vertex 5.04813 15.3208 -10
      vertex -5.05415 17.2359 -10
      vertex 5.19252 30.641 -10
    endloop
  endfacet
  facet normal 0 0 -1
    outer loop
      vertex -5.21659 34.4712 -10
      vertex 5.19252 30.641 -10
      vertex -5.05415 17.2359 -10
    endloop
  endfacet
  facet normal 0 0 -1
    outer loop
      vertex 5.19252 30.641 -10
      vertex -5.21659 34.4712 -10
      vertex 5.43318 45.96 -10
    endloop
  endfacet
  facet normal 0 0 -1
    outer loop
      vertex -5.48732 51.705 -10
      vertex 5.43318 45.96 -10
      vertex -5.21659 34.4712 -10
    endloop
  endfacet
  facet normal 0 0 -1
    outer loop
      vertex 5.43318 45.96 -10
      vertex -5.48732 51.705 -10
      vertex 5.77007 61.2772 -10
    endloop
  endfacet
  facet normal 0 0 -1
    outer loop
      vertex -5.86633 68.9369 -10
      vertex 5.77007 61.2772 -10
      vertex -5.48732 51.705 -10
    endloop
  endfacet
  facet normal 0 0 -1
    outer loop
      vertex 5.77007 61.2772 -10
      vertex -5.86633 68.9369 -10
      vertex 6.2032 76.592 -10
    endloop
  endfacet
  facet normal 0 0 -1
    outer loop
      vertex -6.3536 86.166 -10
      vertex 6.2032 76.592 -10
      vertex -5.86633 68.9369 -10
    endloop
  endfacet
  facet normal 0 0 -1
    outer loop
      vertex 6.2032 76.592 -10
      vertex -6.3536 86.166 -10
      vertex 6.73255 91.9037 -10
    endloop
  endfacet
  facet normal 0 0 -1
    outer loop
      vertex -6.94912 103.392 -10
      vertex 6.73255 91.9037 -10
      vertex -6.3536 86.166 -10
    endloop
  endfacet
  facet normal 0 0 -1
    outer loop
      vertex 6.73255 91.9037 -10
      vertex -6.94912 103.392 -10
      vertex 7.35809 107.212 -10
    endloop
  endfacet
  facet normal 0 0 -1
    outer loop
      vertex -7.65285 120.613 -10
      vertex 7.35809 107.212 -10
      vertex -6.94912 103.392 -10
    endloop
  endfacet
  facet normal 0 0 -1
    outer loop
      vertex 7.35809 107.212 -10
      vertex -7.65285 120.613 -10
      vertex 8.0798 122.516 -10
    endloop
  endfacet
  facet normal 0 0 -1
    outer loop
      vertex -8.46478 137.83 -10
      vertex 8.0798 122.516 -10
      vertex -7.65285 120.613 -10
    endloop
  endfacet
  facet normal 0 0 -1
    outer loop
      vertex 8.0798 122.516 -10
      vertex -8.46478 137.83 -10
      vertex 8.89766 137.815 -10
    endloop
  endfacet
  facet normal 0 0 -1
    outer loop
      vertex 8.89766 137.815 -10
      vertex -8.46478 137.83 -10
      vertex 9.81162 153.108 -10
    endloop
  endfacet
  facet normal 0 0 -1
    outer loop
      vertex -9.38487 155.042 -10
      vertex 9.81162 153.108 -10
      vertex -8.46478 137.83 -10
    endloop
  endfacet
  facet normal 0 0 -1
    outer loop
      vertex 9.81162 153.108 -10
      vertex -9.38487 155.042 -10
      vertex 10.8217 168.396 -10
    endloop
  endfacet
  facet normal 0 0 -1
    outer loop
      vertex -10.4131 172.247 -10
      vertex 10.8217 168.396 -10
      vertex -9.38487 155.042 -10
    endloop
  endfacet
  facet normal 0 0 -1
    outer loop
      vertex 10.8217 168.396 -10
      vertex -10.4131 172.247 -10
      vertex 11.9277 183.677 -10
    endloop
  endfacet
  facet normal 0 0 -1
    outer loop
      vertex -11.5494 189.445 -10
      vertex 11.9277 183.677 -10
      vertex -10.4131 172.247 -10
    endloop
  endfacet
  facet normal 0 0 -1
    outer loop
      vertex 11.9277 183.677 -10
      vertex -11.5494 189.445 -10
      vertex 13.1298 198.951 -10
    endloop
  endfacet
  facet normal 0 0 -1
    outer loop
      vertex -12.3133 200 -10
      vertex 13.1298 198.951 -10
      vertex -11.5494 189.445 -10
    endloop
  endfacet
  facet normal 0 0 -1
    outer loop
      vertex 13.1298 198.951 -10
      vertex -12.3133 200 -10
      vertex 13.219 200 -10
    endloop
  endfacet
  facet normal 0 -1 0
    outer loop
      vertex -12.3133 -200 -10
      vertex 13.219 -200 10
      vertex -12.3133 -200 10
    endloop
  endfacet
  facet normal 0 -1 -0
    outer loop
      vertex 13.219 -200 10
      vertex -12.3133 -200 -10
      vertex 13.219 -200 -10
    endloop
  endfacet
  facet normal 0 1 -0
    outer loop
      vertex 13.219 200 -10
      vertex -12.3133 200 10
      vertex 13.219 200 10
    endloop
  endfacet
  facet normal 0 1 0
    outer loop
      vertex -12.3133 200 10
      vertex 13.219 200 -10
      vertex -12.3133 200 -10
    endloop
  endfacet
  facet normal 0.997391 -0.0721938 0
    outer loop
      vertex 10.8217 168.396 10
      vertex 11.9277 183.677 -10
      vertex 11.9277 183.677 10
    endloop
  endfacet
  facet normal 0.997391 -0.0721938 0
    outer loop
      vertex 11.9277 183.677 -10
      vertex 10.8217 168.396 10
      vertex 10.8217 168.396 -10
    endloop
  endfacet
  facet normal 0.999758 -0.0219894 0
    outer loop
      vertex 5.43318 45.96 10
      vertex 5.77007 61.2772 -10
      vertex 5.77007 61.2772 10
    endloop
  endfacet
  facet normal 0.999758 -0.0219894 0
    outer loop
      vertex 5.77007 61.2772 -10
      vertex 5.43318 45.96 10
      vertex 5.43318 45.96 -10
    endloop
  endfacet
  facet normal 0.999166 -0.0408293 0
    outer loop
      vertex 6.73255 91.9037 10
      vertex 7.35809 107.212 -10
      vertex 7.35809 107.212 10
    endloop
  endfacet
  facet normal 0.999166 -0.0408293 0
    outer loop
      vertex 7.35809 107.212 -10
      vertex 6.73255 91.9037 10
      vertex 6.73255 91.9037 -10
    endloop
  endfacet
  facet normal 0.999403 0.0345506 0
    outer loop
      vertex 6.73255 -91.9037 10
      vertex 6.2032 -76.592 -10
      vertex 6.2032 -76.592 10
    endloop
  endfacet
  facet normal 0.999403 0.0345506 0
    outer loop
      vertex 6.2032 -76.592 -10
      vertex 6.73255 -91.9037 10
      vertex 6.73255 -91.9037 -10
    endloop
  endfacet
  facet normal 0.999995 0.00314153 0
    outer loop
      vertex 5.04813 -15.3208 10
      vertex 5 0 -10
      vertex 5 0 10
    endloop
  endfacet
  facet normal 0.999995 0.00314153 0
    outer loop
      vertex 5 0 -10
      vertex 5.04813 -15.3208 10
      vertex 5.04813 -15.3208 -10
    endloop
  endfacet
  facet normal 0.999877 -0.0157073 0
    outer loop
      vertex 5.19252 30.641 10
      vertex 5.43318 45.96 -10
      vertex 5.43318 45.96 10
    endloop
  endfacet
  facet normal 0.999877 -0.0157073 0
    outer loop
      vertex 5.43318 45.96 -10
      vertex 5.19252 30.641 10
      vertex 5.19252 30.641 -10
    endloop
  endfacet
  facet normal 0.999956 -0.00942464 0
    outer loop
      vertex 5.04813 15.3208 10
      vertex 5.19252 30.641 -10
      vertex 5.19252 30.641 10
    endloop
  endfacet
  facet normal 0.999956 -0.00942464 0
    outer loop
      vertex 5.19252 30.641 -10
      vertex 5.04813 15.3208 10
      vertex 5.04813 15.3208 -10
    endloop
  endfacet
  facet normal 0.9996 -0.0282706 0
    outer loop
      vertex 5.77007 61.2772 10
      vertex 6.2032 76.592 -10
      vertex 6.2032 76.592 10
    endloop
  endfacet
  facet normal 0.9996 -0.0282706 0
    outer loop
      vertex 6.2032 76.592 -10
      vertex 5.77007 61.2772 10
      vertex 5.77007 61.2772 -10
    endloop
  endfacet
  facet normal 0.999403 -0.0345506 0
    outer loop
      vertex 6.2032 76.592 10
      vertex 6.73255 91.9037 -10
      vertex 6.73255 91.9037 10
    endloop
  endfacet
  facet normal 0.999403 -0.0345506 0
    outer loop
      vertex 6.73255 91.9037 -10
      vertex 6.2032 76.592 10
      vertex 6.2032 76.592 -10
    endloop
  endfacet
  facet normal 0.996917 -0.0784591 0
    outer loop
      vertex 11.9277 183.677 10
      vertex 13.1298 198.951 -10
      vertex 13.1298 198.951 10
    endloop
  endfacet
  facet normal 0.996917 -0.0784591 0
    outer loop
      vertex 13.1298 198.951 -10
      vertex 11.9277 183.677 10
      vertex 11.9277 183.677 -10
    endloop
  endfacet
  facet normal 0.996405 -0.0847209 0
    outer loop
      vertex 13.1298 198.951 10
      vertex 13.219 200 -10
      vertex 13.219 200 10
    endloop
  endfacet
  facet normal 0.996405 -0.0847209 0
    outer loop
      vertex 13.219 200 -10
      vertex 13.1298 198.951 10
      vertex 13.1298 198.951 -10
    endloop
  endfacet
  facet normal 0.998219 -0.0596548 0
    outer loop
      vertex 8.89766 137.815 10
      vertex 9.81162 153.108 -10
      vertex 9.81162 153.108 10
    endloop
  endfacet
  facet normal 0.998219 -0.0596548 0
    outer loop
      vertex 9.81162 153.108 -10
      vertex 8.89766 137.815 10
      vertex 8.89766 137.815 -10
    endloop
  endfacet
  facet normal 0.998574 -0.0533817 0
    outer loop
      vertex 8.0798 122.516 10
      vertex 8.89766 137.815 -10
      vertex 8.89766 137.815 10
    endloop
  endfacet
  facet normal 0.998574 -0.0533817 0
    outer loop
      vertex 8.89766 137.815 -10
      vertex 8.0798 122.516 10
      vertex 8.0798 122.516 -10
    endloop
  endfacet
  facet normal 0.997825 -0.0659256 0
    outer loop
      vertex 9.81162 153.108 10
      vertex 10.8217 168.396 -10
      vertex 10.8217 168.396 10
    endloop
  endfacet
  facet normal 0.997825 -0.0659256 0
    outer loop
      vertex 10.8217 168.396 -10
      vertex 9.81162 153.108 10
      vertex 9.81162 153.108 -10
    endloop
  endfacet
  facet normal 0.99889 -0.0471065 0
    outer loop
      vertex 7.35809 107.212 10
      vertex 8.0798 122.516 -10
      vertex 8.0798 122.516 10
    endloop
  endfacet
  facet normal 0.99889 -0.0471065 0
    outer loop
      vertex 8.0798 122.516 -10
      vertex 7.35809 107.212 10
      vertex 7.35809 107.212 -10
    endloop
  endfacet
  facet normal 0.999877 0.0157073 0
    outer loop
      vertex 5.43318 -45.96 10
      vertex 5.19252 -30.641 -10
      vertex 5.19252 -30.641 10
    endloop
  endfacet
  facet normal 0.999877 0.0157073 0
    outer loop
      vertex 5.19252 -30.641 -10
      vertex 5.43318 -45.96 10
      vertex 5.43318 -45.96 -10
    endloop
  endfacet
  facet normal 0.999758 0.0219894 0
    outer loop
      vertex 5.77007 -61.2772 10
      vertex 5.43318 -45.96 -10
      vertex 5.43318 -45.96 10
    endloop
  endfacet
  facet normal 0.999758 0.0219894 0
    outer loop
      vertex 5.43318 -45.96 -10
      vertex 5.77007 -61.2772 10
      vertex 5.77007 -61.2772 -10
    endloop
  endfacet
  facet normal 0.996405 0.0847209 0
    outer loop
      vertex 13.219 -200 10
      vertex 13.1298 -198.951 -10
      vertex 13.1298 -198.951 10
    endloop
  endfacet
  facet normal 0.996405 0.0847209 0
    outer loop
      vertex 13.1298 -198.951 -10
      vertex 13.219 -200 10
      vertex 13.219 -200 -10
    endloop
  endfacet
  facet normal 0.999995 -0.00314153 0
    outer loop
      vertex 5 0 10
      vertex 5.04813 15.3208 -10
      vertex 5.04813 15.3208 10
    endloop
  endfacet
  facet normal 0.999995 -0.00314153 0
    outer loop
      vertex 5.04813 15.3208 -10
      vertex 5 0 10
      vertex 5 0 -10
    endloop
  endfacet
  facet normal 0.999956 0.00942464 0
    outer loop
      vertex 5.19252 -30.641 10
      vertex 5.04813 -15.3208 -10
      vertex 5.04813 -15.3208 10
    endloop
  endfacet
  facet normal 0.999956 0.00942464 0
    outer loop
      vertex 5.04813 -15.3208 -10
      vertex 5.19252 -30.641 10
      vertex 5.19252 -30.641 -10
    endloop
  endfacet
  facet normal 0.998219 0.0596548 0
    outer loop
      vertex 9.81162 -153.108 10
      vertex 8.89766 -137.815 -10
      vertex 8.89766 -137.815 10
    endloop
  endfacet
  facet normal 0.998219 0.0596548 0
    outer loop
      vertex 8.89766 -137.815 -10
      vertex 9.81162 -153.108 10
      vertex 9.81162 -153.108 -10
    endloop
  endfacet
  facet normal 0.99889 0.0471065 0
    outer loop
      vertex 8.0798 -122.516 10
      vertex 7.35809 -107.212 -10
      vertex 7.35809 -107.212 10
    endloop
  endfacet
  facet normal 0.99889 0.0471065 0
    outer loop
      vertex 7.35809 -107.212 -10
      vertex 8.0798 -122.516 10
      vertex 8.0798 -122.516 -10
    endloop
  endfacet
  facet normal 0.998574 0.0533817 0
    outer loop
      vertex 8.89766 -137.815 10
      vertex 8.0798 -122.516 -10
      vertex 8.0798 -122.516 10
    endloop
  endfacet
  facet normal 0.998574 0.0533817 0
    outer loop
      vertex 8.0798 -122.516 -10
      vertex 8.89766 -137.815 10
      vertex 8.89766 -137.815 -10
    endloop
  endfacet
  facet normal 0.9996 0.0282706 0
    outer loop
      vertex 6.2032 -76.592 10
      vertex 5.77007 -61.2772 -10
      vertex 5.77007 -61.2772 10
    endloop
  endfacet
  facet normal 0.9996 0.0282706 0
    outer loop
      vertex 5.77007 -61.2772 -10
      vertex 6.2032 -76.592 10
      vertex 6.2032 -76.592 -10
    endloop
  endfacet
  facet normal 0.997825 0.0659256 0
    outer loop
      vertex 10.8217 -168.396 10
      vertex 9.81162 -153.108 -10
      vertex 9.81162 -153.108 10
    endloop
  endfacet
  facet normal 0.997825 0.0659256 0
    outer loop
      vertex 9.81162 -153.108 -10
      vertex 10.8217 -168.396 10
      vertex 10.8217 -168.396 -10
    endloop
  endfacet
  facet normal 0.996917 0.0784591 0
    outer loop
      vertex 13.1298 -198.951 10
      vertex 11.9277 -183.677 -10
      vertex 11.9277 -183.677 10
    endloop
  endfacet
  facet normal 0.996917 0.0784591 0
    outer loop
      vertex 11.9277 -183.677 -10
      vertex 13.1298 -198.951 10
      vertex 13.1298 -198.951 -10
    endloop
  endfacet
  facet normal 0.997391 0.0721938 0
    outer loop
      vertex 11.9277 -183.677 10
      vertex 10.8217 -168.396 -10
      vertex 10.8217 -168.396 10
    endloop
  endfacet
  facet normal 0.997391 0.0721938 0
    outer loop
      vertex 10.8217 -168.396 -10
      vertex 11.9277 -183.677 10
      vertex 11.9277 -183.677 -10
    endloop
  endfacet
  facet normal 0.999166 0.0408293 0
    outer loop
      vertex 7.35809 -107.212 10
      vertex 6.73255 -91.9037 -10
      vertex 6.73255 -91.9037 10
    endloop
  endfacet
  facet normal 0.999166 0.0408293 0
    outer loop
      vertex 6.73255 -91.9037 -10
      vertex 7.35809 -107.212 10
      vertex 7.35809 -107.212 -10
    endloop
  endfacet
  facet normal -0.999995 0.00314155 0
    outer loop
      vertex -5.05415 -17.2359 -10
      vertex -5 0 10
      vertex -5 0 -10
    endloop
  endfacet
  facet normal -0.999995 0.00314155 0
    outer loop
      vertex -5 0 10
      vertex -5.05415 -17.2359 -10
      vertex -5.05415 -17.2359 10
    endloop
  endfacet
  facet normal -0.999956 -0.00942464 0
    outer loop
      vertex -5.05415 17.2359 -10
      vertex -5.21659 34.4712 10
      vertex -5.21659 34.4712 -10
    endloop
  endfacet
  facet normal -0.999956 -0.00942464 0
    outer loop
      vertex -5.21659 34.4712 10
      vertex -5.05415 17.2359 -10
      vertex -5.05415 17.2359 10
    endloop
  endfacet
  facet normal -0.997391 -0.0721938 0
    outer loop
      vertex -11.5494 189.445 -10
      vertex -12.3133 200 10
      vertex -12.3133 200 -10
    endloop
  endfacet
  facet normal -0.997391 -0.0721938 0
    outer loop
      vertex -12.3133 200 10
      vertex -11.5494 189.445 -10
      vertex -11.5494 189.445 10
    endloop
  endfacet
  facet normal -0.997825 0.0659255 0
    outer loop
      vertex -11.5494 -189.445 -10
      vertex -10.4131 -172.247 10
      vertex -10.4131 -172.247 -10
    endloop
  endfacet
  facet normal -0.997825 0.0659255 0
    outer loop
      vertex -10.4131 -172.247 10
      vertex -11.5494 -189.445 -10
      vertex -11.5494 -189.445 10
    endloop
  endfacet
  facet normal -0.999877 -0.0157073 0
    outer loop
      vertex -5.21659 34.4712 -10
      vertex -5.48732 51.705 10
      vertex -5.48732 51.705 -10
    endloop
  endfacet
  facet normal -0.999877 -0.0157073 0
    outer loop
      vertex -5.48732 51.705 10
      vertex -5.21659 34.4712 -10
      vertex -5.21659 34.4712 10
    endloop
  endfacet
  facet normal -0.998574 -0.0533817 0
    outer loop
      vertex -8.46478 137.83 -10
      vertex -9.38487 155.042 10
      vertex -9.38487 155.042 -10
    endloop
  endfacet
  facet normal -0.998574 -0.0533817 0
    outer loop
      vertex -9.38487 155.042 10
      vertex -8.46478 137.83 -10
      vertex -8.46478 137.83 10
    endloop
  endfacet
  facet normal -0.999995 -0.00314155 0
    outer loop
      vertex -5 0 -10
      vertex -5.05415 17.2359 10
      vertex -5.05415 17.2359 -10
    endloop
  endfacet
  facet normal -0.999995 -0.00314155 0
    outer loop
      vertex -5.05415 17.2359 10
      vertex -5 0 -10
      vertex -5 0 10
    endloop
  endfacet
  facet normal -0.999166 0.0408293 0
    outer loop
      vertex -7.65285 -120.613 -10
      vertex -6.94912 -103.392 10
      vertex -6.94912 -103.392 -10
    endloop
  endfacet
  facet normal -0.999166 0.0408293 0
    outer loop
      vertex -6.94912 -103.392 10
      vertex -7.65285 -120.613 -10
      vertex -7.65285 -120.613 10
    endloop
  endfacet
  facet normal -0.99889 -0.0471064 0
    outer loop
      vertex -7.65285 120.613 -10
      vertex -8.46478 137.83 10
      vertex -8.46478 137.83 -10
    endloop
  endfacet
  facet normal -0.99889 -0.0471064 0
    outer loop
      vertex -8.46478 137.83 10
      vertex -7.65285 120.613 -10
      vertex -7.65285 120.613 10
    endloop
  endfacet
  facet normal -0.999166 -0.0408293 0
    outer loop
      vertex -6.94912 103.392 -10
      vertex -7.65285 120.613 10
      vertex -7.65285 120.613 -10
    endloop
  endfacet
  facet normal -0.999166 -0.0408293 0
    outer loop
      vertex -7.65285 120.613 10
      vertex -6.94912 103.392 -10
      vertex -6.94912 103.392 10
    endloop
  endfacet
  facet normal -0.999758 -0.0219893 0
    outer loop
      vertex -5.48732 51.705 -10
      vertex -5.86633 68.9369 10
      vertex -5.86633 68.9369 -10
    endloop
  endfacet
  facet normal -0.999758 -0.0219893 0
    outer loop
      vertex -5.86633 68.9369 10
      vertex -5.48732 51.705 -10
      vertex -5.48732 51.705 10
    endloop
  endfacet
  facet normal -0.997825 -0.0659255 0
    outer loop
      vertex -10.4131 172.247 -10
      vertex -11.5494 189.445 10
      vertex -11.5494 189.445 -10
    endloop
  endfacet
  facet normal -0.997825 -0.0659255 0
    outer loop
      vertex -11.5494 189.445 10
      vertex -10.4131 172.247 -10
      vertex -10.4131 172.247 10
    endloop
  endfacet
  facet normal -0.999956 0.00942464 0
    outer loop
      vertex -5.21659 -34.4712 -10
      vertex -5.05415 -17.2359 10
      vertex -5.05415 -17.2359 -10
    endloop
  endfacet
  facet normal -0.999956 0.00942464 0
    outer loop
      vertex -5.05415 -17.2359 10
      vertex -5.21659 -34.4712 -10
      vertex -5.21659 -34.4712 10
    endloop
  endfacet
  facet normal -0.9996 0.0282706 0
    outer loop
      vertex -6.3536 -86.166 -10
      vertex -5.86633 -68.9369 10
      vertex -5.86633 -68.9369 -10
    endloop
  endfacet
  facet normal -0.9996 0.0282706 0
    outer loop
      vertex -5.86633 -68.9369 10
      vertex -6.3536 -86.166 -10
      vertex -6.3536 -86.166 10
    endloop
  endfacet
  facet normal -0.99889 0.0471064 0
    outer loop
      vertex -8.46478 -137.83 -10
      vertex -7.65285 -120.613 10
      vertex -7.65285 -120.613 -10
    endloop
  endfacet
  facet normal -0.99889 0.0471064 0
    outer loop
      vertex -7.65285 -120.613 10
      vertex -8.46478 -137.83 -10
      vertex -8.46478 -137.83 10
    endloop
  endfacet
  facet normal -0.998219 0.0596548 0
    outer loop
      vertex -10.4131 -172.247 -10
      vertex -9.38487 -155.042 10
      vertex -9.38487 -155.042 -10
    endloop
  endfacet
  facet normal -0.998219 0.0596548 0
    outer loop
      vertex -9.38487 -155.042 10
      vertex -10.4131 -172.247 -10
      vertex -10.4131 -172.247 10
    endloop
  endfacet
  facet normal -0.9996 -0.0282706 0
    outer loop
      vertex -5.86633 68.9369 -10
      vertex -6.3536 86.166 10
      vertex -6.3536 86.166 -10
    endloop
  endfacet
  facet normal -0.9996 -0.0282706 0
    outer loop
      vertex -6.3536 86.166 10
      vertex -5.86633 68.9369 -10
      vertex -5.86633 68.9369 10
    endloop
  endfacet
  facet normal -0.998219 -0.0596548 0
    outer loop
      vertex -9.38487 155.042 -10
      vertex -10.4131 172.247 10
      vertex -10.4131 172.247 -10
    endloop
  endfacet
  facet normal -0.998219 -0.0596548 0
    outer loop
      vertex -10.4131 172.247 10
      vertex -9.38487 155.042 -10
      vertex -9.38487 155.042 10
    endloop
  endfacet
  facet normal -0.999877 0.0157073 0
    outer loop
      vertex -5.48732 -51.705 -10
      vertex -5.21659 -34.4712 10
      vertex -5.21659 -34.4712 -10
    endloop
  endfacet
  facet normal -0.999877 0.0157073 0
    outer loop
      vertex -5.21659 -34.4712 10
      vertex -5.48732 -51.705 -10
      vertex -5.48732 -51.705 10
    endloop
  endfacet
  facet normal -0.999758 0.0219893 0
    outer loop
      vertex -5.86633 -68.9369 -10
      vertex -5.48732 -51.705 10
      vertex -5.48732 -51.705 -10
    endloop
  endfacet
  facet normal -0.999758 0.0219893 0
    outer loop
      vertex -5.48732 -51.705 10
      vertex -5.86633 -68.9369 -10
      vertex -5.86633 -68.9369 10
    endloop
  endfacet
  facet normal -0.998574 0.0533817 0
    outer loop
      vertex -9.38487 -155.042 -10
      vertex -8.46478 -137.83 10
      vertex -8.46478 -137.83 -10
    endloop
  endfacet
  facet normal -0.998574 0.0533817 0
    outer loop
      vertex -8.46478 -137.83 10
      vertex -9.38487 -155.042 -10
      vertex -9.38487 -155.042 10
    endloop
  endfacet
  facet normal -0.999403 0.0345507 0
    outer loop
      vertex -6.94912 -103.392 -10
      vertex -6.3536 -86.166 10
      vertex -6.3536 -86.166 -10
    endloop
  endfacet
  facet normal -0.999403 0.0345507 0
    outer loop
      vertex -6.3536 -86.166 10
      vertex -6.94912 -103.392 -10
      vertex -6.94912 -103.392 10
    endloop
  endfacet
  facet normal -0.997391 0.0721938 0
    outer loop
      vertex -12.3133 -200 -10
      vertex -11.5494 -189.445 10
      vertex -11.5494 -189.445 -10
    endloop
  endfacet
  facet normal -0.997391 0.0721938 0
    outer loop
      vertex -11.5494 -189.445 10
      vertex -12.3133 -200 -10
      vertex -12.3133 -200 10
    endloop
  endfacet
  facet normal -0.999403 -0.0345507 0
    outer loop
      vertex -6.3536 86.166 -10
      vertex -6.94912 103.392 10
      vertex -6.94912 103.392 -10
    endloop
  endfacet
  facet normal -0.999403 -0.0345507 0
    outer loop
      vertex -6.94912 103.392 10
      vertex -6.3536 86.166 -10
      vertex -6.3536 86.166 10
    endloop
  endfacet
endsolid OpenSCAD_Model
