solid OpenSCAD_Model
  facet normal 0 0 1
    outer loop
      vertex 5.05114 16.2784 10
      vertex -5 0 10
      vertex 5 0 10
    endloop
  endfacet
  facet normal -0 0 1
    outer loop
      vertex -5.05716 18.1935 10
      vertex 5.05114 16.2784 10
      vertex 5.20456 32.5561 10
    endloop
  endfacet
  facet normal -0 0 1
    outer loop
      vertex -5.22862 36.3862 10
      vertex 5.20456 32.5561 10
      vertex 5.46025 48.8325 10
    endloop
  endfacet
  facet normal -0 0 1
    outer loop
      vertex -5.5144 54.5775 10
      vertex 5.46025 48.8325 10
      vertex 5.8182 65.107 10
    endloop
  endfacet
  facet normal -0 0 1
    outer loop
      vertex -5.91446 72.7667 10
      vertex 5.8182 65.107 10
      vertex 6.2784 81.379 10
    endloop
  endfacet
  facet normal -0 0 1
    outer loop
      vertex -6.4288 90.953 10
      vertex 6.2784 81.379 10
      vertex 6.84083 97.6477 10
    endloop
  endfacet
  facet normal -0 0 1
    outer loop
      vertex -7.0574 109.136 10
      vertex 6.84083 97.6477 10
      vertex 7.50547 113.913 10
    endloop
  endfacet
  facet normal -0 0 1
    outer loop
      vertex -7.80023 127.314 10
      vertex 7.50547 113.913 10
      vertex 8.27229 130.173 10
    endloop
  endfacet
  facet normal -0 0 1
    outer loop
      vertex -8.65727 145.487 10
      vertex 8.27229 130.173 10
      vertex 9.14126 146.428 10
    endloop
  endfacet
  facet normal 0 0 1
    outer loop
      vertex -8.65727 145.487 10
      vertex 9.14126 146.428 10
      vertex 10.1124 162.678 10
    endloop
  endfacet
  facet normal -0 0 1
    outer loop
      vertex -9.62847 163.655 10
      vertex 10.1124 162.678 10
      vertex 11.1855 178.921 10
    endloop
  endfacet
  facet normal -0 0 1
    outer loop
      vertex -10.7138 181.816 10
      vertex 11.1855 178.921 10
      vertex 12.3607 195.157 10
    endloop
  endfacet
  facet normal -0 0 1
    outer loop
      vertex -11.9132 199.97 10
      vertex 12.3607 195.157 10
      vertex 12.7419 200 10
    endloop
  endfacet
  facet normal 0 0 1
    outer loop
      vertex 5.05114 16.2784 10
      vertex -5.05716 18.1935 10
      vertex -5 0 10
    endloop
  endfacet
  facet normal 0 0 1
    outer loop
      vertex 5.20456 32.5561 10
      vertex -5.22862 36.3862 10
      vertex -5.05716 18.1935 10
    endloop
  endfacet
  facet normal 0 0 1
    outer loop
      vertex 5.46025 48.8325 10
      vertex -5.5144 54.5775 10
      vertex -5.22862 36.3862 10
    endloop
  endfacet
  facet normal 0 0 1
    outer loop
      vertex 5.8182 65.107 10
      vertex -5.91446 72.7667 10
      vertex -5.5144 54.5775 10
    endloop
  endfacet
  facet normal 0 0 1
    outer loop
      vertex 6.2784 81.379 10
      vertex -6.4288 90.953 10
      vertex -5.91446 72.7667 10
    endloop
  endfacet
  facet normal 0 0 1
    outer loop
      vertex 6.84083 97.6477 10
      vertex -7.0574 109.136 10
      vertex -6.4288 90.953 10
    endloop
  endfacet
  facet normal 0 0 1
    outer loop
      vertex 7.50547 113.913 10
      vertex -7.80023 127.314 10
      vertex -7.0574 109.136 10
    endloop
  endfacet
  facet normal 0 0 1
    outer loop
      vertex 8.27229 130.173 10
      vertex -8.65727 145.487 10
      vertex -7.80023 127.314 10
    endloop
  endfacet
  facet normal 0 0 1
    outer loop
      vertex 10.1124 162.678 10
      vertex -9.62847 163.655 10
      vertex -8.65727 145.487 10
    endloop
  endfacet
  facet normal 0 0 1
    outer loop
      vertex 11.1855 178.921 10
      vertex -10.7138 181.816 10
      vertex -9.62847 163.655 10
    endloop
  endfacet
  facet normal 0 0 1
    outer loop
      vertex 12.3607 195.157 10
      vertex -11.9132 199.97 10
      vertex -10.7138 181.816 10
    endloop
  endfacet
  facet normal 0 -0 1
    outer loop
      vertex -11.9132 199.97 10
      vertex 12.7419 200 10
      vertex -11.9154 200 10
    endloop
  endfacet
  facet normal -0 0 1
    outer loop
      vertex -5 0 10
      vertex 5.05114 -16.2784 10
      vertex 5 0 10
    endloop
  endfacet
  facet normal 0 0 1
    outer loop
      vertex -5.05716 -18.1935 10
      vertex 5.05114 -16.2784 10
      vertex -5 0 10
    endloop
  endfacet
  facet normal 0 0 1
    outer loop
      vertex 5.05114 -16.2784 10
      vertex -5.05716 -18.1935 10
      vertex 5.20456 -32.5561 10
    endloop
  endfacet
  facet normal 0 0 1
    outer loop
      vertex -5.22862 -36.3862 10
      vertex 5.20456 -32.5561 10
      vertex -5.05716 -18.1935 10
    endloop
  endfacet
  facet normal 0 0 1
    outer loop
      vertex 5.20456 -32.5561 10
      vertex -5.22862 -36.3862 10
      vertex 5.46025 -48.8325 10
    endloop
  endfacet
  facet normal 0 0 1
    outer loop
      vertex -5.5144 -54.5775 10
      vertex 5.46025 -48.8325 10
      vertex -5.22862 -36.3862 10
    endloop
  endfacet
  facet normal 0 0 1
    outer loop
      vertex 5.46025 -48.8325 10
      vertex -5.5144 -54.5775 10
      vertex 5.8182 -65.107 10
    endloop
  endfacet
  facet normal 0 0 1
    outer loop
      vertex -5.91446 -72.7667 10
      vertex 5.8182 -65.107 10
      vertex -5.5144 -54.5775 10
    endloop
  endfacet
  facet normal 0 0 1
    outer loop
      vertex 5.8182 -65.107 10
      vertex -5.91446 -72.7667 10
      vertex 6.2784 -81.379 10
    endloop
  endfacet
  facet normal 0 0 1
    outer loop
      vertex -6.4288 -90.953 10
      vertex 6.2784 -81.379 10
      vertex -5.91446 -72.7667 10
    endloop
  endfacet
  facet normal 0 0 1
    outer loop
      vertex 6.2784 -81.379 10
      vertex -6.4288 -90.953 10
      vertex 6.84083 -97.6477 10
    endloop
  endfacet
  facet normal 0 0 1
    outer loop
      vertex -7.0574 -109.136 10
      vertex 6.84083 -97.6477 10
      vertex -6.4288 -90.953 10
    endloop
  endfacet
  facet normal 0 0 1
    outer loop
      vertex 6.84083 -97.6477 10
      vertex -7.0574 -109.136 10
      vertex 7.50547 -113.913 10
    endloop
  endfacet
  facet normal 0 0 1
    outer loop
      vertex -7.80023 -127.314 10
      vertex 7.50547 -113.913 10
      vertex -7.0574 -109.136 10
    endloop
  endfacet
  facet normal 0 0 1
    outer loop
      vertex 7.50547 -113.913 10
      vertex -7.80023 -127.314 10
      vertex 8.27229 -130.173 10
    endloop
  endfacet
  facet normal 0 0 1
    outer loop
      vertex -8.65727 -145.487 10
      vertex 8.27229 -130.173 10
      vertex -7.80023 -127.314 10
    endloop
  endfacet
  facet normal 0 0 1
    outer loop
      vertex 8.27229 -130.173 10
      vertex -8.65727 -145.487 10
      vertex 9.14126 -146.428 10
    endloop
  endfacet
  facet normal 0 0 1
    outer loop
      vertex 9.14126 -146.428 10
      vertex -8.65727 -145.487 10
      vertex 10.1124 -162.678 10
    endloop
  endfacet
  facet normal 0 0 1
    outer loop
      vertex -9.62847 -163.655 10
      vertex 10.1124 -162.678 10
      vertex -8.65727 -145.487 10
    endloop
  endfacet
  facet normal 0 0 1
    outer loop
      vertex 10.1124 -162.678 10
      vertex -9.62847 -163.655 10
      vertex 11.1855 -178.921 10
    endloop
  endfacet
  facet normal 0 0 1
    outer loop
      vertex -10.7138 -181.816 10
      vertex 11.1855 -178.921 10
      vertex -9.62847 -163.655 10
    endloop
  endfacet
  facet normal 0 0 1
    outer loop
      vertex 11.1855 -178.921 10
      vertex -10.7138 -181.816 10
      vertex 12.3607 -195.157 10
    endloop
  endfacet
  facet normal 0 0 1
    outer loop
      vertex -11.9132 -199.97 10
      vertex 12.3607 -195.157 10
      vertex -10.7138 -181.816 10
    endloop
  endfacet
  facet normal 0 0 1
    outer loop
      vertex 12.3607 -195.157 10
      vertex -11.9132 -199.97 10
      vertex 12.7419 -200 10
    endloop
  endfacet
  facet normal 0 0 1
    outer loop
      vertex 12.7419 -200 10
      vertex -11.9132 -199.97 10
      vertex -11.9154 -200 10
    endloop
  endfacet
  facet normal 0 1 -0
    outer loop
      vertex 12.7419 200 -10
      vertex -11.9154 200 10
      vertex 12.7419 200 10
    endloop
  endfacet
  facet normal 0 1 0
    outer loop
      vertex -11.9154 200 10
      vertex 12.7419 200 -10
      vertex -11.9154 200 -10
    endloop
  endfacet
  facet normal 0 0 -1
    outer loop
      vertex 5.05114 -16.2784 -10
      vertex -5 0 -10
      vertex 5 0 -10
    endloop
  endfacet
  facet normal 0 0 -1
    outer loop
      vertex -5.05716 -18.1935 -10
      vertex 5.05114 -16.2784 -10
      vertex 5.20456 -32.5561 -10
    endloop
  endfacet
  facet normal 0 0 -1
    outer loop
      vertex -5.22862 -36.3862 -10
      vertex 5.20456 -32.5561 -10
      vertex 5.46025 -48.8325 -10
    endloop
  endfacet
  facet normal 0 0 -1
    outer loop
      vertex -5.5144 -54.5775 -10
      vertex 5.46025 -48.8325 -10
      vertex 5.8182 -65.107 -10
    endloop
  endfacet
  facet normal 0 0 -1
    outer loop
      vertex -5.91446 -72.7667 -10
      vertex 5.8182 -65.107 -10
      vertex 6.2784 -81.379 -10
    endloop
  endfacet
  facet normal 0 0 -1
    outer loop
      vertex -6.4288 -90.953 -10
      vertex 6.2784 -81.379 -10
      vertex 6.84083 -97.6477 -10
    endloop
  endfacet
  facet normal 0 0 -1
    outer loop
      vertex -7.0574 -109.136 -10
      vertex 6.84083 -97.6477 -10
      vertex 7.50547 -113.913 -10
    endloop
  endfacet
  facet normal 0 0 -1
    outer loop
      vertex -7.80023 -127.314 -10
      vertex 7.50547 -113.913 -10
      vertex 8.27229 -130.173 -10
    endloop
  endfacet
  facet normal 0 0 -1
    outer loop
      vertex -8.65727 -145.487 -10
      vertex 8.27229 -130.173 -10
      vertex 9.14126 -146.428 -10
    endloop
  endfacet
  facet normal 0 0 -1
    outer loop
      vertex -8.65727 -145.487 -10
      vertex 9.14126 -146.428 -10
      vertex 10.1124 -162.678 -10
    endloop
  endfacet
  facet normal 0 0 -1
    outer loop
      vertex -9.62847 -163.655 -10
      vertex 10.1124 -162.678 -10
      vertex 11.1855 -178.921 -10
    endloop
  endfacet
  facet normal 0 0 -1
    outer loop
      vertex -10.7138 -181.816 -10
      vertex 11.1855 -178.921 -10
      vertex 12.3607 -195.157 -10
    endloop
  endfacet
  facet normal 0 0 -1
    outer loop
      vertex -11.9132 -199.97 -10
      vertex 12.3607 -195.157 -10
      vertex 12.7419 -200 -10
    endloop
  endfacet
  facet normal -0 0 -1
    outer loop
      vertex 5.05114 -16.2784 -10
      vertex -5.05716 -18.1935 -10
      vertex -5 0 -10
    endloop
  endfacet
  facet normal -0 0 -1
    outer loop
      vertex 5.20456 -32.5561 -10
      vertex -5.22862 -36.3862 -10
      vertex -5.05716 -18.1935 -10
    endloop
  endfacet
  facet normal -0 0 -1
    outer loop
      vertex 5.46025 -48.8325 -10
      vertex -5.5144 -54.5775 -10
      vertex -5.22862 -36.3862 -10
    endloop
  endfacet
  facet normal -0 0 -1
    outer loop
      vertex 5.8182 -65.107 -10
      vertex -5.91446 -72.7667 -10
      vertex -5.5144 -54.5775 -10
    endloop
  endfacet
  facet normal -0 0 -1
    outer loop
      vertex 6.2784 -81.379 -10
      vertex -6.4288 -90.953 -10
      vertex -5.91446 -72.7667 -10
    endloop
  endfacet
  facet normal -0 0 -1
    outer loop
      vertex 6.84083 -97.6477 -10
      vertex -7.0574 -109.136 -10
      vertex -6.4288 -90.953 -10
    endloop
  endfacet
  facet normal -0 0 -1
    outer loop
      vertex 7.50547 -113.913 -10
      vertex -7.80023 -127.314 -10
      vertex -7.0574 -109.136 -10
    endloop
  endfacet
  facet normal -0 0 -1
    outer loop
      vertex 8.27229 -130.173 -10
      vertex -8.65727 -145.487 -10
      vertex -7.80023 -127.314 -10
    endloop
  endfacet
  facet normal -0 0 -1
    outer loop
      vertex 10.1124 -162.678 -10
      vertex -9.62847 -163.655 -10
      vertex -8.65727 -145.487 -10
    endloop
  endfacet
  facet normal -0 0 -1
    outer loop
      vertex 11.1855 -178.921 -10
      vertex -10.7138 -181.816 -10
      vertex -9.62847 -163.655 -10
    endloop
  endfacet
  facet normal -0 0 -1
    outer loop
      vertex 12.3607 -195.157 -10
      vertex -11.9132 -199.97 -10
      vertex -10.7138 -181.816 -10
    endloop
  endfacet
  facet normal 0 -0 -1
    outer loop
      vertex -11.9132 -199.97 -10
      vertex 12.7419 -200 -10
      vertex -11.9154 -200 -10
    endloop
  endfacet
  facet normal 0 0 -1
    outer loop
      vertex -5 0 -10
      vertex 5.05114 16.2784 -10
      vertex 5 0 -10
    endloop
  endfacet
  facet normal 0 0 -1
    outer loop
      vertex -5.05716 18.1935 -10
      vertex 5.05114 16.2784 -10
      vertex -5 0 -10
    endloop
  endfacet
  facet normal 0 0 -1
    outer loop
      vertex 5.05114 16.2784 -10
      vertex -5.05716 18.1935 -10
      vertex 5.20456 32.5561 -10
    endloop
  endfacet
  facet normal 0 0 -1
    outer loop
      vertex -5.22862 36.3862 -10
      vertex 5.20456 32.5561 -10
      vertex -5.05716 18.1935 -10
    endloop
  endfacet
  facet normal 0 0 -1
    outer loop
      vertex 5.20456 32.5561 -10
      vertex -5.22862 36.3862 -10
      vertex 5.46025 48.8325 -10
    endloop
  endfacet
  facet normal 0 0 -1
    outer loop
      vertex -5.5144 54.5775 -10
      vertex 5.46025 48.8325 -10
      vertex -5.22862 36.3862 -10
    endloop
  endfacet
  facet normal 0 0 -1
    outer loop
      vertex 5.46025 48.8325 -10
      vertex -5.5144 54.5775 -10
      vertex 5.8182 65.107 -10
    endloop
  endfacet
  facet normal 0 0 -1
    outer loop
      vertex -5.91446 72.7667 -10
      vertex 5.8182 65.107 -10
      vertex -5.5144 54.5775 -10
    endloop
  endfacet
  facet normal 0 0 -1
    outer loop
      vertex 5.8182 65.107 -10
      vertex -5.91446 72.7667 -10
      vertex 6.2784 81.379 -10
    endloop
  endfacet
  facet normal 0 0 -1
    outer loop
      vertex -6.4288 90.953 -10
      vertex 6.2784 81.379 -10
      vertex -5.91446 72.7667 -10
    endloop
  endfacet
  facet normal 0 0 -1
    outer loop
      vertex 6.2784 81.379 -10
      vertex -6.4288 90.953 -10
      vertex 6.84083 97.6477 -10
    endloop
  endfacet
  facet normal 0 0 -1
    outer loop
      vertex -7.0574 109.136 -10
      vertex 6.84083 97.6477 -10
      vertex -6.4288 90.953 -10
    endloop
  endfacet
  facet normal 0 0 -1
    outer loop
      vertex 6.84083 97.6477 -10
      vertex -7.0574 109.136 -10
      vertex 7.50547 113.913 -10
    endloop
  endfacet
  facet normal 0 0 -1
    outer loop
      vertex -7.80023 127.314 -10
      vertex 7.50547 113.913 -10
      vertex -7.0574 109.136 -10
    endloop
  endfacet
  facet normal 0 0 -1
    outer loop
      vertex 7.50547 113.913 -10
      vertex -7.80023 127.314 -10
      vertex 8.27229 130.173 -10
    endloop
  endfacet
  facet normal 0 0 -1
    outer loop
      vertex -8.65727 145.487 -10
      vertex 8.27229 130.173 -10
      vertex -7.80023 127.314 -10
    endloop
  endfacet
  facet normal 0 0 -1
    outer loop
      vertex 8.27229 130.173 -10
      vertex -8.65727 145.487 -10
      vertex 9.14126 146.428 -10
    endloop
  endfacet
  facet normal -0 0 -1
    outer loop
      vertex 9.14126 146.428 -10
      vertex -8.65727 145.487 -10
      vertex 10.1124 162.678 -10
    endloop
  endfacet
  facet normal 0 0 -1
    outer loop
      vertex -9.62847 163.655 -10
      vertex 10.1124 162.678 -10
      vertex -8.65727 145.487 -10
    endloop
  endfacet
  facet normal 0 0 -1
    outer loop
      vertex 10.1124 162.678 -10
      vertex -9.62847 163.655 -10
      vertex 11.1855 178.921 -10
    endloop
  endfacet
  facet normal 0 0 -1
    outer loop
      vertex -10.7138 181.816 -10
      vertex 11.1855 178.921 -10
      vertex -9.62847 163.655 -10
    endloop
  endfacet
  facet normal 0 0 -1
    outer loop
      vertex 11.1855 178.921 -10
      vertex -10.7138 181.816 -10
      vertex 12.3607 195.157 -10
    endloop
  endfacet
  facet normal 0 0 -1
    outer loop
      vertex -11.9132 199.97 -10
      vertex 12.3607 195.157 -10
      vertex -10.7138 181.816 -10
    endloop
  endfacet
  facet normal 0 0 -1
    outer loop
      vertex 12.3607 195.157 -10
      vertex -11.9132 199.97 -10
      vertex 12.7419 200 -10
    endloop
  endfacet
  facet normal -0 0 -1
    outer loop
      vertex 12.7419 200 -10
      vertex -11.9132 199.97 -10
      vertex -11.9154 200 -10
    endloop
  endfacet
  facet normal 0 -1 0
    outer loop
      vertex -11.9154 -200 -10
      vertex 12.7419 -200 10
      vertex -11.9154 -200 10
    endloop
  endfacet
  facet normal 0 -1 -0
    outer loop
      vertex 12.7419 -200 10
      vertex -11.9154 -200 -10
      vertex 12.7419 -200 -10
    endloop
  endfacet
  facet normal 0.998219 -0.0596548 0
    outer loop
      vertex 9.14126 146.428 10
      vertex 10.1124 162.678 -10
      vertex 10.1124 162.678 10
    endloop
  endfacet
  facet normal 0.998219 -0.0596548 0
    outer loop
      vertex 10.1124 162.678 -10
      vertex 9.14126 146.428 10
      vertex 9.14126 146.428 -10
    endloop
  endfacet
  facet normal 0.999758 -0.0219894 0
    outer loop
      vertex 5.46025 48.8325 10
      vertex 5.8182 65.107 -10
      vertex 5.8182 65.107 10
    endloop
  endfacet
  facet normal 0.999758 -0.0219894 0
    outer loop
      vertex 5.8182 65.107 -10
      vertex 5.46025 48.8325 10
      vertex 5.46025 48.8325 -10
    endloop
  endfacet
  facet normal 0.999995 -0.00314157 0
    outer loop
      vertex 5 0 10
      vertex 5.05114 16.2784 -10
      vertex 5.05114 16.2784 10
    endloop
  endfacet
  facet normal 0.999995 -0.00314157 0
    outer loop
      vertex 5.05114 16.2784 -10
      vertex 5 0 10
      vertex 5 0 -10
    endloop
  endfacet
  facet normal 0.999956 -0.00942464 0
    outer loop
      vertex 5.05114 16.2784 10
      vertex 5.20456 32.5561 -10
      vertex 5.20456 32.5561 10
    endloop
  endfacet
  facet normal 0.999956 -0.00942464 0
    outer loop
      vertex 5.20456 32.5561 -10
      vertex 5.05114 16.2784 10
      vertex 5.05114 16.2784 -10
    endloop
  endfacet
  facet normal 0.997391 -0.0721937 0
    outer loop
      vertex 11.1855 178.921 10
      vertex 12.3607 195.157 -10
      vertex 12.3607 195.157 10
    endloop
  endfacet
  facet normal 0.997391 -0.0721937 0
    outer loop
      vertex 12.3607 195.157 -10
      vertex 11.1855 178.921 10
      vertex 11.1855 178.921 -10
    endloop
  endfacet
  facet normal 0.999166 -0.0408294 0
    outer loop
      vertex 6.84083 97.6477 10
      vertex 7.50547 113.913 -10
      vertex 7.50547 113.913 10
    endloop
  endfacet
  facet normal 0.999166 -0.0408294 0
    outer loop
      vertex 7.50547 113.913 -10
      vertex 6.84083 97.6477 10
      vertex 6.84083 97.6477 -10
    endloop
  endfacet
  facet normal 0.996917 -0.0784592 0
    outer loop
      vertex 12.3607 195.157 10
      vertex 12.7419 200 -10
      vertex 12.7419 200 10
    endloop
  endfacet
  facet normal 0.996917 -0.0784592 0
    outer loop
      vertex 12.7419 200 -10
      vertex 12.3607 195.157 10
      vertex 12.3607 195.157 -10
    endloop
  endfacet
  facet normal 0.99889 -0.0471065 0
    outer loop
      vertex 7.50547 113.913 10
      vertex 8.27229 130.173 -10
      vertex 8.27229 130.173 10
    endloop
  endfacet
  facet normal 0.99889 -0.0471065 0
    outer loop
      vertex 8.27229 130.173 -10
      vertex 7.50547 113.913 10
      vertex 7.50547 113.913 -10
    endloop
  endfacet
  facet normal 0.998574 -0.0533817 0
    outer loop
      vertex 8.27229 130.173 10
      vertex 9.14126 146.428 -10
      vertex 9.14126 146.428 10
    endloop
  endfacet
  facet normal 0.998574 -0.0533817 0
    outer loop
      vertex 9.14126 146.428 -10
      vertex 8.27229 130.173 10
      vertex 8.27229 130.173 -10
    endloop
  endfacet
  facet normal 0.997825 -0.0659256 0
    outer loop
      vertex 10.1124 162.678 10
      vertex 11.1855 178.921 -10
      vertex 11.1855 178.921 10
    endloop
  endfacet
  facet normal 0.997825 -0.0659256 0
    outer loop
      vertex 11.1855 178.921 -10
      vertex 10.1124 162.678 10
      vertex 10.1124 162.678 -10
    endloop
  endfacet
  facet normal 0.9996 -0.0282706 0
    outer loop
      vertex 5.8182 65.107 10
      vertex 6.2784 81.379 -10
      vertex 6.2784 81.379 10
    endloop
  endfacet
  facet normal 0.9996 -0.0282706 0
    outer loop
      vertex 6.2784 81.379 -10
      vertex 5.8182 65.107 10
      vertex 5.8182 65.107 -10
    endloop
  endfacet
  facet normal 0.999403 -0.0345506 0
    outer loop
      vertex 6.2784 81.379 10
      vertex 6.84083 97.6477 -10
      vertex 6.84083 97.6477 10
    endloop
  endfacet
  facet normal 0.999403 -0.0345506 0
    outer loop
      vertex 6.84083 97.6477 -10
      vertex 6.2784 81.379 10
      vertex 6.2784 81.379 -10
    endloop
  endfacet
  facet normal 0.99889 0.0471065 0
    outer loop
      vertex 8.27229 -130.173 10
      vertex 7.50547 -113.913 -10
      vertex 7.50547 -113.913 10
    endloop
  endfacet
  facet normal 0.99889 0.0471065 0
    outer loop
      vertex 7.50547 -113.913 -10
      vertex 8.27229 -130.173 10
      vertex 8.27229 -130.173 -10
    endloop
  endfacet
  facet normal 0.999995 0.00314157 0
    outer loop
      vertex 5.05114 -16.2784 10
      vertex 5 0 -10
      vertex 5 0 10
    endloop
  endfacet
  facet normal 0.999995 0.00314157 0
    outer loop
      vertex 5 0 -10
      vertex 5.05114 -16.2784 10
      vertex 5.05114 -16.2784 -10
    endloop
  endfacet
  facet normal 0.999877 -0.0157073 0
    outer loop
      vertex 5.20456 32.5561 10
      vertex 5.46025 48.8325 -10
      vertex 5.46025 48.8325 10
    endloop
  endfacet
  facet normal 0.999877 -0.0157073 0
    outer loop
      vertex 5.46025 48.8325 -10
      vertex 5.20456 32.5561 10
      vertex 5.20456 32.5561 -10
    endloop
  endfacet
  facet normal 0.999403 0.0345506 0
    outer loop
      vertex 6.84083 -97.6477 10
      vertex 6.2784 -81.379 -10
      vertex 6.2784 -81.379 10
    endloop
  endfacet
  facet normal 0.999403 0.0345506 0
    outer loop
      vertex 6.2784 -81.379 -10
      vertex 6.84083 -97.6477 10
      vertex 6.84083 -97.6477 -10
    endloop
  endfacet
  facet normal 0.999758 0.0219894 0
    outer loop
      vertex 5.8182 -65.107 10
      vertex 5.46025 -48.8325 -10
      vertex 5.46025 -48.8325 10
    endloop
  endfacet
  facet normal 0.999758 0.0219894 0
    outer loop
      vertex 5.46025 -48.8325 -10
      vertex 5.8182 -65.107 10
      vertex 5.8182 -65.107 -10
    endloop
  endfacet
  facet normal 0.998219 0.0596548 0
    outer loop
      vertex 10.1124 -162.678 10
      vertex 9.14126 -146.428 -10
      vertex 9.14126 -146.428 10
    endloop
  endfacet
  facet normal 0.998219 0.0596548 0
    outer loop
      vertex 9.14126 -146.428 -10
      vertex 10.1124 -162.678 10
      vertex 10.1124 -162.678 -10
    endloop
  endfacet
  facet normal 0.997825 0.0659256 0
    outer loop
      vertex 11.1855 -178.921 10
      vertex 10.1124 -162.678 -10
      vertex 10.1124 -162.678 10
    endloop
  endfacet
  facet normal 0.997825 0.0659256 0
    outer loop
      vertex 10.1124 -162.678 -10
      vertex 11.1855 -178.921 10
      vertex 11.1855 -178.921 -10
    endloop
  endfacet
  facet normal 0.998574 0.0533817 0
    outer loop
      vertex 9.14126 -146.428 10
      vertex 8.27229 -130.173 -10
      vertex 8.27229 -130.173 10
    endloop
  endfacet
  facet normal 0.998574 0.0533817 0
    outer loop
      vertex 8.27229 -130.173 -10
      vertex 9.14126 -146.428 10
      vertex 9.14126 -146.428 -10
    endloop
  endfacet
  facet normal 0.9996 0.0282706 0
    outer loop
      vertex 6.2784 -81.379 10
      vertex 5.8182 -65.107 -10
      vertex 5.8182 -65.107 10
    endloop
  endfacet
  facet normal 0.9996 0.0282706 0
    outer loop
      vertex 5.8182 -65.107 -10
      vertex 6.2784 -81.379 10
      vertex 6.2784 -81.379 -10
    endloop
  endfacet
  facet normal 0.999166 0.0408294 0
    outer loop
      vertex 7.50547 -113.913 10
      vertex 6.84083 -97.6477 -10
      vertex 6.84083 -97.6477 10
    endloop
  endfacet
  facet normal 0.999166 0.0408294 0
    outer loop
      vertex 6.84083 -97.6477 -10
      vertex 7.50547 -113.913 10
      vertex 7.50547 -113.913 -10
    endloop
  endfacet
  facet normal 0.999877 0.0157073 0
    outer loop
      vertex 5.46025 -48.8325 10
      vertex 5.20456 -32.5561 -10
      vertex 5.20456 -32.5561 10
    endloop
  endfacet
  facet normal 0.999877 0.0157073 0
    outer loop
      vertex 5.20456 -32.5561 -10
      vertex 5.46025 -48.8325 10
      vertex 5.46025 -48.8325 -10
    endloop
  endfacet
  facet normal 0.999956 0.00942464 0
    outer loop
      vertex 5.20456 -32.5561 10
      vertex 5.05114 -16.2784 -10
      vertex 5.05114 -16.2784 10
    endloop
  endfacet
  facet normal 0.999956 0.00942464 0
    outer loop
      vertex 5.05114 -16.2784 -10
      vertex 5.20456 -32.5561 10
      vertex 5.20456 -32.5561 -10
    endloop
  endfacet
  facet normal 0.997391 0.0721937 0
    outer loop
      vertex 12.3607 -195.157 10
      vertex 11.1855 -178.921 -10
      vertex 11.1855 -178.921 10
    endloop
  endfacet
  facet normal 0.997391 0.0721937 0
    outer loop
      vertex 11.1855 -178.921 -10
      vertex 12.3607 -195.157 10
      vertex 12.3607 -195.157 -10
    endloop
  endfacet
  facet normal 0.996917 0.0784592 0
    outer loop
      vertex 12.7419 -200 10
      vertex 12.3607 -195.157 -10
      vertex 12.3607 -195.157 10
    endloop
  endfacet
  facet normal 0.996917 0.0784592 0
    outer loop
      vertex 12.3607 -195.157 -10
      vertex 12.7419 -200 10
      vertex 12.7419 -200 -10
    endloop
  endfacet
  facet normal -0.999995 -0.00314158 0
    outer loop
      vertex -5 0 -10
      vertex -5.05716 18.1935 10
      vertex -5.05716 18.1935 -10
    endloop
  endfacet
  facet normal -0.999995 -0.00314158 0
    outer loop
      vertex -5.05716 18.1935 10
      vertex -5 0 -10
      vertex -5 0 10
    endloop
  endfacet
  facet normal -0.999403 0.0345506 0
    outer loop
      vertex -7.0574 -109.136 -10
      vertex -6.4288 -90.953 10
      vertex -6.4288 -90.953 -10
    endloop
  endfacet
  facet normal -0.999403 0.0345506 0
    outer loop
      vertex -6.4288 -90.953 10
      vertex -7.0574 -109.136 -10
      vertex -7.0574 -109.136 10
    endloop
  endfacet
  facet normal -0.999166 -0.0408293 0
    outer loop
      vertex -7.0574 109.136 -10
      vertex -7.80023 127.314 10
      vertex -7.80023 127.314 -10
    endloop
  endfacet
  facet normal -0.999166 -0.0408293 0
    outer loop
      vertex -7.80023 127.314 10
      vertex -7.0574 109.136 -10
      vertex -7.0574 109.136 10
    endloop
  endfacet
  facet normal -0.999956 -0.00942464 0
    outer loop
      vertex -5.05716 18.1935 -10
      vertex -5.22862 36.3862 10
      vertex -5.22862 36.3862 -10
    endloop
  endfacet
  facet normal -0.999956 -0.00942464 0
    outer loop
      vertex -5.22862 36.3862 10
      vertex -5.05716 18.1935 -10
      vertex -5.05716 18.1935 10
    endloop
  endfacet
  facet normal -0.999995 0.00314158 0
    outer loop
      vertex -5.05716 -18.1935 -10
      vertex -5 0 10
      vertex -5 0 -10
    endloop
  endfacet
  facet normal -0.999995 0.00314158 0
    outer loop
      vertex -5 0 10
      vertex -5.05716 -18.1935 -10
      vertex -5.05716 -18.1935 10
    endloop
  endfacet
  facet normal -0.999758 -0.0219894 0
    outer loop
      vertex -5.5144 54.5775 -10
      vertex -5.91446 72.7667 10
      vertex -5.91446 72.7667 -10
    endloop
  endfacet
  facet normal -0.999758 -0.0219894 0
    outer loop
      vertex -5.91446 72.7667 10
      vertex -5.5144 54.5775 -10
      vertex -5.5144 54.5775 10
    endloop
  endfacet
  facet normal -0.999403 -0.0345506 0
    outer loop
      vertex -6.4288 90.953 -10
      vertex -7.0574 109.136 10
      vertex -7.0574 109.136 -10
    endloop
  endfacet
  facet normal -0.999403 -0.0345506 0
    outer loop
      vertex -7.0574 109.136 10
      vertex -6.4288 90.953 -10
      vertex -6.4288 90.953 10
    endloop
  endfacet
  facet normal -0.99889 -0.0471065 0
    outer loop
      vertex -7.80023 127.314 -10
      vertex -8.65727 145.487 10
      vertex -8.65727 145.487 -10
    endloop
  endfacet
  facet normal -0.99889 -0.0471065 0
    outer loop
      vertex -8.65727 145.487 10
      vertex -7.80023 127.314 -10
      vertex -7.80023 127.314 10
    endloop
  endfacet
  facet normal -0.998574 -0.0533817 0
    outer loop
      vertex -8.65727 145.487 -10
      vertex -9.62847 163.655 10
      vertex -9.62847 163.655 -10
    endloop
  endfacet
  facet normal -0.998574 -0.0533817 0
    outer loop
      vertex -9.62847 163.655 10
      vertex -8.65727 145.487 -10
      vertex -8.65727 145.487 10
    endloop
  endfacet
  facet normal -0.999877 0.0157073 0
    outer loop
      vertex -5.5144 -54.5775 -10
      vertex -5.22862 -36.3862 10
      vertex -5.22862 -36.3862 -10
    endloop
  endfacet
  facet normal -0.999877 0.0157073 0
    outer loop
      vertex -5.22862 -36.3862 10
      vertex -5.5144 -54.5775 -10
      vertex -5.5144 -54.5775 10
    endloop
  endfacet
  facet normal -0.999956 0.00942464 0
    outer loop
      vertex -5.22862 -36.3862 -10
      vertex -5.05716 -18.1935 10
      vertex -5.05716 -18.1935 -10
    endloop
  endfacet
  facet normal -0.999956 0.00942464 0
    outer loop
      vertex -5.05716 -18.1935 10
      vertex -5.22862 -36.3862 -10
      vertex -5.22862 -36.3862 10
    endloop
  endfacet
  facet normal -0.9996 0.0282706 0
    outer loop
      vertex -6.4288 -90.953 -10
      vertex -5.91446 -72.7667 10
      vertex -5.91446 -72.7667 -10
    endloop
  endfacet
  facet normal -0.9996 0.0282706 0
    outer loop
      vertex -5.91446 -72.7667 10
      vertex -6.4288 -90.953 -10
      vertex -6.4288 -90.953 10
    endloop
  endfacet
  facet normal -0.99739 0.0722047 0
    outer loop
      vertex -11.9154 -200 -10
      vertex -11.9132 -199.97 10
      vertex -11.9132 -199.97 -10
    endloop
  endfacet
  facet normal -0.99739 0.0722047 0
    outer loop
      vertex -11.9132 -199.97 10
      vertex -11.9154 -200 -10
      vertex -11.9154 -200 10
    endloop
  endfacet
  facet normal -0.999877 -0.0157073 0
    outer loop
      vertex -5.22862 36.3862 -10
      vertex -5.5144 54.5775 10
      vertex -5.5144 54.5775 -10
    endloop
  endfacet
  facet normal -0.999877 -0.0157073 0
    outer loop
      vertex -5.5144 54.5775 10
      vertex -5.22862 36.3862 -10
      vertex -5.22862 36.3862 10
    endloop
  endfacet
  facet normal -0.9996 -0.0282706 0
    outer loop
      vertex -5.91446 72.7667 -10
      vertex -6.4288 90.953 10
      vertex -6.4288 90.953 -10
    endloop
  endfacet
  facet normal -0.9996 -0.0282706 0
    outer loop
      vertex -6.4288 90.953 10
      vertex -5.91446 72.7667 -10
      vertex -5.91446 72.7667 10
    endloop
  endfacet
  facet normal -0.999166 0.0408293 0
    outer loop
      vertex -7.80023 -127.314 -10
      vertex -7.0574 -109.136 10
      vertex -7.0574 -109.136 -10
    endloop
  endfacet
  facet normal -0.999166 0.0408293 0
    outer loop
      vertex -7.0574 -109.136 10
      vertex -7.80023 -127.314 -10
      vertex -7.80023 -127.314 10
    endloop
  endfacet
  facet normal -0.999758 0.0219894 0
    outer loop
      vertex -5.91446 -72.7667 -10
      vertex -5.5144 -54.5775 10
      vertex -5.5144 -54.5775 -10
    endloop
  endfacet
  facet normal -0.999758 0.0219894 0
    outer loop
      vertex -5.5144 -54.5775 10
      vertex -5.91446 -72.7667 -10
      vertex -5.91446 -72.7667 10
    endloop
  endfacet
  facet normal -0.998219 -0.0596548 0
    outer loop
      vertex -9.62847 163.655 -10
      vertex -10.7138 181.816 10
      vertex -10.7138 181.816 -10
    endloop
  endfacet
  facet normal -0.998219 -0.0596548 0
    outer loop
      vertex -10.7138 181.816 10
      vertex -9.62847 163.655 -10
      vertex -9.62847 163.655 10
    endloop
  endfacet
  facet normal -0.997825 -0.0659256 0
    outer loop
      vertex -10.7138 181.816 -10
      vertex -11.9132 199.97 10
      vertex -11.9132 199.97 -10
    endloop
  endfacet
  facet normal -0.997825 -0.0659256 0
    outer loop
      vertex -11.9132 199.97 10
      vertex -10.7138 181.816 -10
      vertex -10.7138 181.816 10
    endloop
  endfacet
  facet normal -0.998574 0.0533817 0
    outer loop
      vertex -9.62847 -163.655 -10
      vertex -8.65727 -145.487 10
      vertex -8.65727 -145.487 -10
    endloop
  endfacet
  facet normal -0.998574 0.0533817 0
    outer loop
      vertex -8.65727 -145.487 10
      vertex -9.62847 -163.655 -10
      vertex -9.62847 -163.655 10
    endloop
  endfacet
  facet normal -0.998219 0.0596548 0
    outer loop
      vertex -10.7138 -181.816 -10
      vertex -9.62847 -163.655 10
      vertex -9.62847 -163.655 -10
    endloop
  endfacet
  facet normal -0.998219 0.0596548 0
    outer loop
      vertex -9.62847 -163.655 10
      vertex -10.7138 -181.816 -10
      vertex -10.7138 -181.816 10
    endloop
  endfacet
  facet normal -0.997825 0.0659256 0
    outer loop
      vertex -11.9132 -199.97 -10
      vertex -10.7138 -181.816 10
      vertex -10.7138 -181.816 -10
    endloop
  endfacet
  facet normal -0.997825 0.0659256 0
    outer loop
      vertex -10.7138 -181.816 10
      vertex -11.9132 -199.97 -10
      vertex -11.9132 -199.97 10
    endloop
  endfacet
  facet normal -0.99889 0.0471065 0
    outer loop
      vertex -8.65727 -145.487 -10
      vertex -7.80023 -127.314 10
      vertex -7.80023 -127.314 -10
    endloop
  endfacet
  facet normal -0.99889 0.0471065 0
    outer loop
      vertex -7.80023 -127.314 10
      vertex -8.65727 -145.487 -10
      vertex -8.65727 -145.487 10
    endloop
  endfacet
  facet normal -0.99739 -0.0722047 0
    outer loop
      vertex -11.9132 199.97 -10
      vertex -11.9154 200 10
      vertex -11.9154 200 -10
    endloop
  endfacet
  facet normal -0.99739 -0.0722047 0
    outer loop
      vertex -11.9154 200 10
      vertex -11.9132 199.97 -10
      vertex -11.9132 199.97 10
    endloop
  endfacet
endsolid OpenSCAD_Model
